<svg xmlns="http://www.w3.org/2000/svg" width="320" height="592" fill="none" viewBox="0 0 320 592">
    <ellipse cx="160" cy="579.183" fill="#E5E4E4" rx="78.801" ry="12.817"/>
    <path fill="#fff" d="M320 0H0v388h320V0z"/>
    <path fill="#4C4944" d="M320 .238H0v8h320v-8zM210.099 580.677a2.74 2.74 0 0 0 1.747-3.274l-49.288-190.068h-5.116l-49.35 189.408a2.852 2.852 0 1 0 5.523 1.427l43.827-170.906v171.841a2.558 2.558 0 1 0 5.116 0V407.181l43.981 171.59a2.74 2.74 0 0 0 3.56 1.906z"/>
    <path fill="#4C4944" d="M165.446 360.294h-11.057v45.316h11.057v-45.316z"/>
    <path fill="#4C4944" d="M167.179 403.956c0 1.075-.908 1.985-1.981 1.985h-10.644c-1.073 0-1.981-.91-1.981-1.985v-5.954c0-1.075.908-1.985 1.981-1.985h10.644c1.073 0 1.981.91 1.981 1.985v5.954zM168.911 357.978h-18.153v6.616h18.153v-6.616z"/>
    <path fill="#4C4944" d="M201.257 351.859c0 3.556-2.888 6.45-6.436 6.45h-69.972c-3.548 0-6.436-2.894-6.436-6.45v-34.4c0-3.556 2.888-6.45 6.436-6.45h69.972c3.548 0 6.436 2.894 6.436 6.45v34.4z"/>
    <path fill="#4C4944" d="M171.965 297.695h-24.59l-8.581 14.223h42.247l-9.076-14.223zm-2.806 10.502h-18.648v-6.615h18.648v6.615z"/>
    <path fill="#fff" d="M173.037 317.459h-46.208v33.904h46.208v-33.904z"/>
    <path fill="#F16D64" d="M143.064 322.037s.407 13.907-1.921 16.281c-2.328 2.374-4.768 5.158-3.972 6.796.796 1.638 4.207 2.328 6.456-.085 2.248-2.414 3.604-3.448 4.204-3.706.6-.258 3.623-1.292 2.923-3.427-.673-2.13-1.123-3.608-1.109-6.637.014-3.029-.064-9.129-.064-9.129s-5.233-.598-6.517-.093z"/>
    <mask id="a" width="14" height="26" x="137" y="321" maskUnits="userSpaceOnUse">
        <path fill="#5FA7A4" d="M143.064 322.037s.407 13.907-1.921 16.281c-2.328 2.374-4.768 5.158-3.972 6.796.796 1.638 4.207 2.328 6.456-.085 2.248-2.414 3.604-3.448 4.204-3.706.6-.258 3.623-1.292 2.923-3.427-.673-2.13-1.123-3.608-1.109-6.637.014-3.029-.064-9.129-.064-9.129s-5.233-.598-6.517-.093z"/>
    </mask>
    <g mask="url(#a)">
        <path fill="#fff" fill-opacity=".3" fill-rule="evenodd" d="M150.346 327.956c-.008.055-.071.103-.126.096l-.028-.004c-4.761-1.157-7.93-.087-7.962-.063-.059.021-.139-.018-.159-.078-.02-.059-.023-.456.036-.476.032-.024 3.264-1.143 8.105.053.055.008.145.388.134.472zm-.082 2.906c.055.007.186-.541.193-.597.012-.083-.036-.147-.092-.154-4.841-1.196-8.073-.078-8.104-.054-.06.021-.099.1-.078.16a1.7 1.7 0 0 1 .019.182c.014.176.033.41.072.397.031-.025 3.2-1.095 7.962.062l.028.004zm.411 2.803c-.027-.003-.031.024-.031.024-.036.052-.119.041-.147.037-4.778-2.491-7.825-.865-7.856-.841-.087.016-.143.009-.191-.054-.016-.088-.008-.143.055-.191.122-.069 3.172-1.722 8.11.847.079.039.096.126.06.178zm-3.871 8.765l-.028-.004c-.059.02-.138-.019-.135-.047-2.182-4.97-5.573-5.601-5.6-5.605-.084-.011-.132-.074-.12-.158.011-.083.074-.131.157-.12.139.019 3.558.654 5.804 5.774a.136.136 0 0 1-.078.16zm-1.096 1.21c-.004.028-.032.024-.032.024-.059.021-.111-.015-.127-.102-2.635-4.632-6.013-4.985-6.132-4.997l-.003-.001c-.087.017-.135-.046-.124-.13-.017-.087.046-.135.13-.124.142-.009 3.606.292 6.342 5.139.02.06.009.143-.054.191zm-.833 1.559c.014.002.022-.004.029-.01.008-.006.016-.012.03-.01a.136.136 0 0 0 .026-.195c-3.2-4.542-6.686-4.478-6.828-4.469-.056-.007-.122.069-.13.124-.011.084.068.123.124.13l.009.001c.204.003 3.56.054 6.609 4.355.048.063.075.067.131.074zm5.179-9.239l.031-.024c.035-.052.019-.139-.033-.174-4.344-3.085-7.505-2.09-7.896-1.967l-.036.01a.136.136 0 0 0-.078.16c.021.059.1.098.159.078.032-.024 3.275-1.226 7.682 1.922.08.039.139.019.171-.005zm-1.513 3.661c-.008.006-.016.012-.03.01-.055-.008-.111-.015-.131-.075-3.023-4.3-6.378-4.374-6.577-4.378l-.009-.001c-.056-.007-.135-.046-.124-.13.008-.055.074-.131.13-.124.142-.009 3.6-.077 6.797 4.493a.136.136 0 0 1-.026.195c-.014-.002-.022.004-.03.01z" clip-rule="evenodd"/>
    </g>
    <path fill="#C2433B" d="M143.063 322.037c1.284-.505 6.517.093 6.517.093s.007 1.615.021 3.6c0 0-5.018-.512-6.524-.037.033-2.12-.014-3.656-.014-3.656zM142.487 345.922c-2.122 1.269-4.654.557-5.313-.836-.354-.728-.056-1.679.567-2.727.007-.056 3.256-.464 4.746 3.563z"/>
    <path fill="#fff" fill-opacity=".3" d="M148.881 329.172l.586-.571-.574-.56-.586.572.574.559zM147.634 328.01l-.575.576.573.577.575-.576-.573-.577zM146.369 328.02l-.576.576.574.576.575-.575-.573-.577zM145.12 328.007l-.576.575.574.577.576-.575-.574-.577zM143.855 328.016l-.576.574.573.577.576-.575-.573-.576z"/>
    <path fill="#C2433B" d="M149.928 335.008c.181.96.457 1.847.801 2.857.672 2.13-2.323 3.168-2.923 3.426a2.148 2.148 0 0 0-.395.202c-2.408-4.548 2.517-6.485 2.517-6.485z"/>
    <path fill="#A25921" d="M137.143 345.11c-.443-.91.119-2.136 1.064-3.481.064 5.164 4.153 2.519 4.85 1.339 1.562-2.563 4.018-2.541 5.55-3.834 1.338-1.121-.727-4.234-.78-7.187-.035-2.667 1.089-6.792.113-8.142-.948-1.347-4.869-.152-4.869-.152-.007-.993-.035-1.62-.035-1.62 1.283-.505 6.516.093 6.516.093s.055 6.069.064 9.129c-.014 3.029.436 4.507 1.109 6.637.673 2.131-2.323 3.169-2.923 3.427-.6.258-1.955 1.292-4.204 3.706-2.245 2.385-5.656 1.695-6.455.085z" opacity=".4" style="mix-blend-mode:multiply"/>
    <path stroke="#F16D64" stroke-dasharray="0.78 0.39" stroke-width=".194" d="M154.693 322.357a4.883 4.883 0 0 0-.349.101l.031.092a2.14 2.14 0 0 0-.257.103l.005.03.045.286-.096.015.06.388.096-.014.115.783-.097.014c.018.124.037.255.055.391l.097-.013c.034.245.07.508.106.788l-.096.012.051.389.096-.012.098.787-.097.011.047.391.096-.012c.03.257.06.519.089.788l-.096.01.041.391.097-.01c.027.259.054.522.079.788l-.097.009.037.394.097-.009c.024.26.047.523.068.788l-.097.008.031.394.097-.008c.02.263.039.526.056.789l-.097.006.024.395.097-.006c.015.265.028.529.039.791l-.097.004.016.395.097-.004c.009.267.016.532.02.793l-.097.001c.002.132.004.263.004.393h.097c.002.269 0 .534-.005.793l-.097-.002a24.66 24.66 0 0 1-.011.395l.097.004c-.009.271-.023.536-.041.791l-.097-.007c-.01.134-.021.266-.033.395l.097.009c-.027.277-.06.541-.099.79l-.096-.015a8.915 8.915 0 0 1-.07.385l.095.02a5.855 5.855 0 0 1-.209.778l-.091-.032a3.663 3.663 0 0 1-.151.364l.087.043c-.064.13-.134.248-.211.351l-.233.314-.078-.058-.231.316.078.057c-.153.211-.305.423-.454.635l-.08-.055-.223.321.08.055a27.16 27.16 0 0 0-.434.649l-.082-.053-.21.329.082.052c-.141.224-.276.447-.403.667l-.084-.048c-.066.114-.129.228-.191.341l.086.046c-.128.236-.245.467-.35.694l-.088-.041a8.352 8.352 0 0 0-.157.359l.089.037a6.457 6.457 0 0 0-.252.728l-.094-.026c-.036.13-.065.257-.088.381l.096.018c-.049.27-.063.522-.038.751l-.097.01c.014.134.041.261.082.382l.092-.031c.04.117.093.226.16.328.071.106.155.206.251.299l-.068.07c.096.094.203.18.32.259l.055-.081c.209.141.451.257.717.344l-.03.092c.128.042.261.077.398.105l.02-.096c.253.052.522.079.799.078v.097c.136 0 .273-.007.412-.02l-.009-.097c.261-.025.526-.074.792-.15l.026.094c.131-.038.261-.081.391-.131l-.035-.09c.245-.095.488-.212.724-.355l.051.083c.116-.07.23-.146.343-.228l-.057-.078c.211-.154.415-.33.609-.529l.07.068a5.12 5.12 0 0 0 .275-.307l-.075-.062a5.15 5.15 0 0 0 .247-.322l.218-.307.079.057.22-.305-.078-.057c.154-.212.303-.413.447-.604l.078.059.227-.299-.077-.059c.162-.211.317-.407.465-.591l.076.061c.081-.101.16-.198.238-.291l-.075-.062c.174-.21.337-.4.49-.573l.073.065c.087-.098.171-.191.252-.277l-.071-.066c.197-.212.375-.391.534-.538l.066.071c.102-.095.196-.177.282-.247l-.061-.075a2.694 2.694 0 0 1 .476-.321l.2-.115.049.084c.107-.063.228-.136.357-.218l-.052-.082c.212-.135.444-.295.672-.478l.061.076a5.35 5.35 0 0 0 .315-.273l-.066-.071c.199-.188.383-.393.531-.613l.081.054c.079-.117.148-.238.205-.363l-.089-.041c.11-.241.172-.497.167-.766l.097-.002a1.776 1.776 0 0 0-.057-.413l-.094.024a1.988 1.988 0 0 0-.139-.373v-.001l-.16-.34.088-.042a86.824 86.824 0 0 1-.159-.34l-.088.04c-.108-.232-.211-.46-.31-.686l.089-.039c-.05-.116-.1-.231-.148-.346l-.089.038a18.002 18.002 0 0 1-.277-.703l.091-.034a14.591 14.591 0 0 1-.126-.354l-.092.032c-.08-.233-.156-.472-.227-.722l.093-.026a14.541 14.541 0 0 1-.099-.363l-.094.025c-.062-.235-.12-.479-.175-.735l.095-.021c-.026-.12-.051-.242-.075-.368l-.096.018a20.92 20.92 0 0 1-.13-.743l.095-.015-.056-.371-.096.013c-.017-.122-.035-.247-.051-.374l-.05-.375.097-.013a51.4 51.4 0 0 1-.051-.377l-.096.013-.103-.754.096-.014-.052-.377-.097.014a220.14 220.14 0 0 0-.105-.754l.096-.014-.053-.376-.096.013-.107-.753.096-.014-.054-.376-.096.013-.108-.753.096-.014-.054-.376-.097.014-.109-.753.096-.014-.054-.377-.097.014-.11-.754.096-.014-.054-.375-.097.014-.11-.753.096-.014-.056-.378-.096.015-.041-.277-.002-.012h-.009l-.267.008-.003-.097c-.103.003-.224.007-.362.013l.004.097c-.21.008-.456.019-.727.033l-.005-.097-.363.019.005.097c-.231.014-.475.029-.725.047l-.007-.097-.362.027.007.097c-.239.019-.482.04-.723.064l-.009-.097-.363.038.011.097a19.77 19.77 0 0 0-.718.091l-.014-.096c-.123.017-.244.036-.361.055l.017.096a9.939 9.939 0 0 0-.706.143l-.024-.094z"/>
    <path stroke="#F16D64" stroke-dasharray="0.78 0.39" stroke-width=".097" d="M161.013 325.346s-5.042.148-6.473.816M156.585 346.456c-1.943-3.798-5.02-2.968-5.021-2.912M162.482 334.357s-4.632 2.563-1.652 6.758"/>
    <path fill="#615D56" d="M187.642 351.032c4.512 0 8.169-3.665 8.169-8.186 0-4.522-3.657-8.187-8.169-8.187-4.511 0-8.169 3.665-8.169 8.187 0 4.521 3.658 8.186 8.169 8.186z"/>
    <path fill="#4C4944" d="M187.642 349.213c3.509 0 6.354-2.851 6.354-6.367 0-3.517-2.845-6.368-6.354-6.368s-6.353 2.851-6.353 6.368c0 3.516 2.844 6.367 6.353 6.367z"/>
    <path fill="#615D56" d="M187.065 320.767c0 .496-.331.827-.826.827h-4.95c-.496 0-.826-.331-.826-.827v-2.481c0-.496.33-.827.826-.827h4.95c.495 0 .826.331.826.827v2.481zM187.065 327.382c0 .496-.331.827-.826.827h-4.95c-.496 0-.826-.331-.826-.827v-2.481c0-.496.33-.827.826-.827h4.95c.495 0 .826.331.826.827v2.481zM196.141 320.767c0 .496-.33.827-.825.827h-4.951c-.495 0-.825-.331-.825-.827v-2.481c0-.496.33-.827.825-.827h4.951c.495 0 .825.331.825.827v2.481zM196.141 327.382c0 .496-.33.827-.825.827h-4.951c-.495 0-.825-.331-.825-.827v-2.481c0-.496.33-.827.825-.827h4.951c.495 0 .825.331.825.827v2.481z"/>
    <path fill="#B5BAB6" fill-opacity=".15" d="M58.028 112.475v9.344h-9.856l-.064-9.344h-18.24v-6.72l12.288-28.288 8.576 3.2L40.3 104.923h7.936l1.088-10.24h8.704v10.24h4.864v7.552h-4.864zm24.987-34.816c5.291 0 9.323 1.941 12.096 5.824 2.816 3.882 4.224 9.472 4.224 16.768 0 7.253-1.408 12.842-4.224 16.768-2.773 3.925-6.805 5.888-12.096 5.888-5.29 0-9.344-1.963-12.16-5.888-2.773-3.926-4.16-9.515-4.16-16.768 0-7.296 1.387-12.886 4.16-16.768 2.816-3.883 6.87-5.824 12.16-5.824zm0 7.488c-1.45 0-2.602.47-3.456 1.408-.853.938-1.493 2.496-1.92 4.672-.384 2.176-.576 5.184-.576 9.024 0 3.84.192 6.869.576 9.088.427 2.176 1.067 3.733 1.92 4.672.854.938 2.006 1.408 3.456 1.408 1.451 0 2.603-.448 3.456-1.344.854-.939 1.472-2.496 1.856-4.672.427-2.219.64-5.27.64-9.152 0-3.883-.213-6.912-.64-9.088-.384-2.219-1.002-3.776-1.856-4.672-.853-.896-2.005-1.344-3.456-1.344zm48.638 27.328v9.344h-9.856l-.064-9.344h-18.24v-6.72l12.288-28.288 8.576 3.2-10.432 24.256h7.936l1.088-10.24h8.704v10.24h4.864v7.552h-4.864z"/>
    <path fill="#F16D64" d="M136.692 42.893s2.096 71.568-9.885 83.788c-11.982 12.22-24.539 26.548-20.444 34.976 4.096 8.429 21.652 11.981 33.224-.44 11.573-12.421 18.547-17.741 21.636-19.071 3.089-1.329 18.646-6.649 15.042-17.635-3.462-10.966-5.778-18.569-5.705-34.157.073-15.588-.332-46.984-.332-46.984s-26.93-3.077-33.536-.477z"/>
    <mask id="b" width="72" height="129" x="105" y="41" maskUnits="userSpaceOnUse">
        <path fill="#5FA7A4" d="M136.692 42.893s2.096 71.568-9.885 83.788c-11.982 12.22-24.539 26.548-20.444 34.976 4.096 8.429 21.652 11.981 33.224-.44 11.573-12.421 18.547-17.741 21.636-19.071 3.089-1.329 18.646-6.649 15.042-17.635-3.462-10.966-5.778-18.569-5.705-34.157.073-15.588-.332-46.984-.332-46.984s-26.93-3.077-33.536-.477z"/>
    </mask>
    <g mask="url(#b)">
        <path fill="#fff" fill-opacity=".3" fill-rule="evenodd" d="M174.17 73.352c-.038.286-.363.534-.648.495l-.143-.02c-24.504-5.954-40.813-.445-40.976-.321-.305.104-.714-.097-.818-.403-.104-.306-.118-2.349.187-2.453.162-.124 16.796-5.88 41.709.276.285.039.748 1.997.689 2.426zm-.424 14.957c.286.039.959-2.785.997-3.072.059-.429-.188-.754-.474-.793-24.913-6.156-41.547-.4-41.709-.276-.305.105-.506.515-.402.82.035.103.065.484.101.942.071.904.166 2.107.369 2.038.162-.124 16.471-5.633 40.975.322l.143.019zm2.12 14.428c-.143-.019-.162.124-.162.124-.182.267-.61.208-.753.189-24.593-12.818-40.271-4.453-40.433-4.33-.448.085-.734.046-.981-.279-.084-.449-.046-.735.279-.982.629-.352 16.327-8.86 41.738 4.361.409.201.494.65.312.917zm-19.923 45.106l-.143-.02c-.305.104-.714-.097-.694-.24-11.23-25.579-28.682-28.826-28.825-28.845-.428-.058-.675-.384-.617-.813.058-.429.383-.677.811-.619.714.097 18.309 3.364 29.87 29.717.104.305-.097.715-.402.82zm-5.643 6.23c-.02.143-.162.123-.162.123-.305.105-.572-.077-.656-.526-13.557-23.837-30.943-25.654-31.559-25.719l-.016-.002c-.448.085-.695-.24-.636-.669-.085-.449.239-.696.668-.638.733-.046 18.56 1.502 32.639 26.448.104.306.046.735-.278.983zm-4.285 8.018c.071.009.112-.022.152-.052.041-.031.081-.062.153-.053a.7.7 0 0 0 .135-1.002c-16.473-23.376-34.409-23.044-35.143-22.998-.285-.039-.629.352-.668.638-.058.429.351.631.637.67l.05.001c1.05.016 18.32.28 34.008 22.412.247.325.39.345.676.384zm26.653-47.544l.162-.123c.181-.267.097-.716-.17-.898-22.357-15.877-38.626-10.756-40.636-10.123-.09.028-.152.047-.184.055-.305.105-.506.515-.402.82.104.306.514.507.819.403.162-.124 16.854-6.31 39.534 9.893.409.201.714.097.877-.027zm-7.787 18.84c-.04.031-.081.062-.152.052-.286-.039-.571-.078-.676-.383-15.56-22.13-32.821-22.513-33.848-22.536l-.048-.002c-.285-.039-.694-.24-.636-.669.038-.287.382-.677.668-.638.733-.046 18.527-.398 34.98 23.122a.7.7 0 0 1-.135 1.002c-.072-.01-.112.021-.153.052z" clip-rule="evenodd"/>
    </g>
    <path fill="#C2433B" d="M136.692 42.893c6.606-2.6 33.536.477 33.536.477s.038 8.314.111 18.528c0 0-25.826-2.636-33.575-.19.167-10.91-.072-18.815-.072-18.815zM133.728 165.814c-10.92 6.533-23.952 2.867-27.345-4.3-1.821-3.746-.286-8.639 2.917-14.035.039-.286 16.76-2.386 24.428 18.335z"/>
    <path fill="#fff" fill-opacity=".3" d="M166.632 79.616l3.016-2.943-2.955-2.88-3.017 2.943 2.956 2.88zM160.215 73.634l-2.96 2.957 2.95 2.967 2.961-2.957-2.951-2.967zM153.702 73.682l-2.96 2.959 2.952 2.966 2.96-2.959-2.952-2.966zM147.276 73.62l-2.961 2.957 2.951 2.967 2.961-2.957-2.951-2.967zM140.761 73.663l-2.962 2.957 2.95 2.968 2.961-2.956-2.949-2.969z"/>
    <path fill="#C2433B" d="M172.022 109.649c.931 4.937 2.35 9.503 4.119 14.7 3.462 10.966-11.952 16.305-15.041 17.635-.61.208-1.24.56-2.031 1.036-12.397-23.406 12.953-33.371 12.953-33.371z"/>
    <path fill="#A25921" d="M106.22 161.638c-2.275-4.683.616-10.995 5.479-17.914.331 26.575 21.374 12.963 24.959 6.891 8.04-13.193 20.68-13.079 28.562-19.733 6.89-5.769-3.742-21.791-4.012-36.989-.179-13.727 5.603-34.952.58-41.903-4.88-6.932-25.058-.782-25.058-.782-.036-5.107-.182-8.334-.182-8.334 6.607-2.6 33.537.477 33.537.477s.282 31.233.332 46.984c-.073 15.587 2.243 23.191 5.705 34.157 3.461 10.966-11.953 16.305-15.042 17.635-3.089 1.329-10.064 6.649-21.636 19.071-11.553 12.278-29.109 8.725-33.224.44z" opacity=".4" style="mix-blend-mode:multiply"/>
    <path stroke="#F16D64" stroke-dasharray="4 2" d="M196.546 44.54c-.656.164-1.259.337-1.801.52l.16.473a11.17 11.17 0 0 0-1.32.529l.026.156c.054.336.132.832.232 1.472l-.494.077c.087.56.19 1.228.306 1.997l.494-.074c.172 1.137.372 2.493.591 4.032l-.495.07c.091.64.186 1.312.283 2.013l.496-.07c.175 1.263.359 2.62.548 4.056l-.495.066.26 2.002.496-.064c.166 1.298.334 2.65.503 4.049l-.496.06c.079.66.159 1.33.238 2.008l.497-.058c.154 1.319.308 2.672.458 4.053l-.497.054c.072.665.144 1.336.215 2.013l.498-.053c.139 1.331.275 2.684.407 4.052l-.498.048c.065.672.128 1.348.19 2.026l.498-.045c.123 1.341.24 2.695.351 4.055l-.499.04c.055.675.108 1.351.16 2.029l.498-.038c.103 1.351.198 2.706.285 4.06l-.499.032c.043.678.084 1.355.123 2.031l.5-.029c.078 1.362.146 2.72.204 4.069l-.499.021c.029.68.055 1.357.079 2.031l.499-.017c.048 1.373.084 2.734.105 4.076l-.5.009c.011.679.019 1.353.022 2.022l.5-.003c.008 1.388-.001 2.751-.027 4.085l-.5-.01c-.014.686-.032 1.364-.055 2.033l.5.017a112.06 112.06 0 0 1-.214 4.072l-.499-.036c-.05.692-.106 1.371-.17 2.035l.498.047a65.705 65.705 0 0 1-.509 4.065l-.494-.078a46.64 46.64 0 0 1-.358 1.983l.49.1c-.299 1.465-.655 2.808-1.077 4.005l-.471-.166a17.381 17.381 0 0 1-.777 1.875l.449.22c-.328.67-.689 1.276-1.085 1.807-.399.535-.799 1.074-1.198 1.615l-.402-.297c-.398.54-.795 1.081-1.191 1.625l.405.294a243.97 243.97 0 0 0-2.339 3.27l-.41-.287c-.386.551-.77 1.103-1.149 1.655l.412.283a156.549 156.549 0 0 0-2.234 3.337l-.42-.272c-.368.566-.73 1.132-1.084 1.695l.423.266a102.117 102.117 0 0 0-2.071 3.436l-.433-.25a83.527 83.527 0 0 0-.983 1.756l.44.238a62.62 62.62 0 0 0-1.801 3.569l-.454-.21a47.11 47.11 0 0 0-.809 1.848l.463.19a32.774 32.774 0 0 0-1.302 3.745l-.482-.132c-.184.67-.335 1.325-.45 1.963l.492.089c-.252 1.392-.325 2.685-.198 3.866l-.497.054c.074.688.213 1.343.423 1.964l.474-.161a7.16 7.16 0 0 0 .824 1.688 9.468 9.468 0 0 0 1.289 1.542l-.349.359c.496.481 1.047.926 1.648 1.331l.28-.414c1.076.725 2.321 1.322 3.691 1.767l-.155.476c.659.214 1.344.394 2.051.537l.1-.49c1.304.265 2.687.403 4.114.4l.002.5a22.36 22.36 0 0 0 2.118-.105l-.048-.497a22.938 22.938 0 0 0 4.076-.772l.137.481a23.446 23.446 0 0 0 2.01-.671l-.179-.466a23.585 23.585 0 0 0 3.728-1.824l.258.428a24.363 24.363 0 0 0 1.767-1.174l-.295-.404a24.656 24.656 0 0 0 3.137-2.723l.358.349c.485-.498.958-1.023 1.417-1.577l-.385-.319c.436-.526.859-1.078 1.269-1.657.38-.538.755-1.065 1.124-1.58l.406.291c.384-.534.761-1.056 1.132-1.566l-.404-.294a227.78 227.78 0 0 1 2.304-3.11l.399.302c.397-.528.787-1.039 1.17-1.537l-.396-.304a172.633 172.633 0 0 1 2.393-3.042l.389.314c.419-.52.827-1.019 1.225-1.498l-.385-.319a112.74 112.74 0 0 1 2.524-2.946l.374.332c.45-.505.882-.98 1.297-1.426l-.366-.341a55.7 55.7 0 0 1 2.749-2.768l.341.366a30.03 30.03 0 0 1 1.449-1.27l-.315-.388a14.29 14.29 0 0 1 1.622-1.168c.212-.128.496-.29.828-.48.308-.177.658-.377 1.031-.596l.253.432a58.528 58.528 0 0 0 1.837-1.119l-.269-.422a38.51 38.51 0 0 0 3.458-2.459l.314.389c.55-.443 1.096-.912 1.623-1.407l-.343-.364c1.028-.965 1.974-2.02 2.738-3.156l.415.28c.403-.601.76-1.224 1.054-1.87l-.456-.208c.566-1.242.885-2.559.859-3.945l.5-.01a9.18 9.18 0 0 0-.296-2.124l-.484.125a10.3 10.3 0 0 0-.714-1.92l-.002-.005c-.28-.594-.555-1.177-.824-1.753l.452-.212c-.277-.592-.549-1.176-.816-1.753l-.454.209a177.235 177.235 0 0 1-1.594-3.535l.458-.2c-.259-.594-.512-1.185-.76-1.778l-.461.193a93.036 93.036 0 0 1-1.426-3.617l.469-.173c-.222-.6-.438-1.207-.649-1.822l-.473.162a78.53 78.53 0 0 1-1.169-3.712l.481-.138a78.868 78.868 0 0 1-.512-1.866l-.484.127a86.078 86.078 0 0 1-.898-3.783l.488-.105c-.132-.617-.261-1.249-.387-1.896l-.491.096c-.236-1.218-.46-2.49-.673-3.826l.494-.078c-.099-.623-.195-1.26-.289-1.911l-.495.07a142.84 142.84 0 0 1-.265-1.927l-.254-1.931.495-.066c-.083-.628-.17-1.275-.26-1.94l-.496.067c-.167-1.24-.345-2.54-.53-3.882l.495-.068-.268-1.94-.496.068c-.176-1.267-.357-2.564-.542-3.878l.495-.07-.274-1.94-.495.07-.551-3.876.495-.07-.277-1.939-.495.071c-.186-1.303-.373-2.598-.557-3.875l.495-.072-.279-1.937-.495.072-.562-3.877.495-.072-.283-1.94-.494.072-.567-3.878.495-.072-.283-1.93-.494.073-.57-3.877.494-.073-.286-1.943-.495.073-.211-1.424-.009-.063-.048.002c-.318.008-.783.021-1.372.04l-.017-.5c-.528.018-1.155.04-1.864.068l.02.5a312.09 312.09 0 0 0-3.741.168l-.026-.499c-.6.03-1.224.064-1.867.101l.028.5c-1.19.068-2.445.147-3.733.239l-.036-.499c-.615.044-1.238.09-1.866.14l.04.5a194.22 194.22 0 0 0-3.722.329l-.049-.498c-.625.062-1.247.127-1.864.195l.056.497c-1.268.141-2.51.296-3.697.467l-.072-.495c-.635.092-1.254.188-1.855.288l.083.493a47.933 47.933 0 0 0-3.631.737l-.121-.485z"/>
    <path stroke="#F16D64" stroke-dasharray="4 2" stroke-width=".5" d="M229.068 59.924s-25.948.759-33.313 4.195M206.282 168.561c-10-19.542-25.839-15.274-25.84-14.985M236.629 106.298s-23.838 13.191-8.504 34.778"/>
</svg>
