<svg xmlns="http://www.w3.org/2000/svg" width="1147" height="736" fill="none" viewBox="0 0 1147 736">
    <ellipse cx="983.5" cy="641.5" fill="#E8E7E6" rx="163.5" ry="26.5"/>
    <ellipse cx="543.5" cy="713.4" fill="#E8E7E6" rx="95.5" ry="15.5"/>
    <ellipse cx="243.5" cy="711.5" fill="#E8E7E6" rx="153.5" ry="24.5"/>
    <path fill="#E8E7E6" d="M245 533l7.877-515h646.864L947 533H245z"/>
    <path fill="#F7F7F7" fill-rule="evenodd" d="M259 13h637v490h-.82L1136 556H0l257.599-53H259V13z" clip-rule="evenodd"/>
    <path fill="#4C4944" fill-rule="evenodd" d="M235 12c0-6.627 5.373-12 12-12s12 5.373 12 12v1h637v-1c0-6.627 5.373-12 12-12s12 5.373 12 12v12c0 6.627-5.373 12-12 12s-12-5.373-12-12v-1H259v1c0 6.627-5.373 12-12 12s-12-5.373-12-12V12z" clip-rule="evenodd"/>
    <path fill="#4C4944" d="M604.912 715.209a3.321 3.321 0 0 0 2.119-3.97L547.3 481.4h-6.2l-59.805 229.04a3.456 3.456 0 1 0 6.691 1.734L541.1 505.5v207.8a3.1 3.1 0 0 0 6.2 0V505.4l53.301 207.5a3.321 3.321 0 0 0 4.311 2.309z"/>
    <path fill="#4C4944" d="M550.8 448.7h-13.4v54.8h13.4v-54.8z"/>
    <path fill="#4C4944" d="M552.9 501.5c0 1.3-1.1 2.4-2.4 2.4h-12.9c-1.3 0-2.4-1.1-2.4-2.4v-7.2c0-1.3 1.1-2.4 2.4-2.4h12.9c1.3 0 2.4 1.1 2.4 2.4v7.2zM555 445.9h-22v8h22v-8z"/>
    <path fill="#4C4944" d="M594.2 438.5c0 4.3-3.5 7.8-7.8 7.8h-84.8c-4.3 0-7.8-3.5-7.8-7.8v-41.6c0-4.3 3.5-7.8 7.8-7.8h84.8c4.3 0 7.8 3.5 7.8 7.8v41.6z"/>
    <path fill="#4C4944" d="M558.7 373h-29.8l-10.4 17.2h51.2l-11-17.2zm-3.4 12.7h-22.6v-8h22.6v8z"/>
    <path fill="#fff" d="M560 396.9h-56v41h56v-41z"/>
    <path fill="#615D56" d="M577.7 437.5c5.468 0 9.9-4.432 9.9-9.9 0-5.467-4.432-9.9-9.9-9.9s-9.9 4.433-9.9 9.9c0 5.468 4.432 9.9 9.9 9.9z"/>
    <path fill="#4C4944" d="M577.7 435.3a7.7 7.7 0 0 0 7.7-7.7 7.7 7.7 0 0 0-7.7-7.7 7.7 7.7 0 0 0-7.7 7.7 7.7 7.7 0 0 0 7.7 7.7z"/>
    <path fill="#615D56" d="M577 400.9c0 .6-.4 1-1 1h-6c-.6 0-1-.4-1-1v-3c0-.6.4-1 1-1h6c.6 0 1 .4 1 1v3zM577 408.9c0 .6-.4 1-1 1h-6c-.6 0-1-.4-1-1v-3c0-.6.4-1 1-1h6c.6 0 1 .4 1 1v3zM588 400.9c0 .6-.4 1-1 1h-6c-.6 0-1-.4-1-1v-3c0-.6.4-1 1-1h6c.6 0 1 .4 1 1v3zM588 408.9c0 .6-.4 1-1 1h-6c-.6 0-1-.4-1-1v-3c0-.6.4-1 1-1h6c.6 0 1 .4 1 1v3z"/>
    <path fill="#4C4944" d="M800 276.028V102.089a5 5 0 0 1 4.008-4.9l78.191-15.824a4.867 4.867 0 0 1 3.398.541c5.525 3.179 24.339 14.377 39.903 28.094 13.832 12.19 24.001 28.146 26 32.5.167 23.667.4 75.5 0 93.5-.38 17.112-40.856 46.725-64.038 61.348-2.219 1.4-4.894 1.819-7.45 1.226l-76.143-17.676a5 5 0 0 1-3.869-4.87z"/>
    <path fill="#4C4944" d="M951 171.5h75c6.63 0 12 5.373 12 12v11c0 6.627-5.37 12-12 12h-75v-35z"/>
    <path fill="#4C4944" d="M962.806 168.235c-.432-4.688 3.258-8.735 7.966-8.735h21.456c4.708 0 8.402 4.047 7.962 8.735l-4.519 49a8 8 0 0 1-7.967 7.265h-12.408a8 8 0 0 1-7.967-7.265l-4.523-49z"/>
    <rect width="6" height="410" x="978" y="220.5" fill="#4C4944" rx="3"/>
    <rect width="6" height="182.835" x="977.061" y="507.718" fill="#4C4944" rx="3" transform="rotate(-38.033 977.061 507.718)"/>
    <path fill="#4C4944" d="M978.439 505.556l.787.616a4.999 4.999 0 0 1 .858 7.019l-106.51 136.18a3 3 0 0 1-4.726-3.697l109.591-140.118z"/>
    <rect width="6" height="143.783" x="980.923" y="508.5" fill="#4C4944" rx="3" transform="rotate(29.662 980.923 508.5)"/>
    <rect width="6" height="143.783" x="977" y="514.969" fill="#4C4944" rx="3" transform="rotate(-29.66 977 514.969)"/>
    <path fill="#4C4944" d="M979.903 590.834l1.671-5.763 82.373 23.887-1.672 5.763z"/>
    <path fill="#4C4944" d="M981.374 585.5l1.67 5.763-82.372 23.884-1.671-5.762z"/>
    <path fill="#4C4944" fill-rule="evenodd" d="M1044.85 202.015c-3.85-2.931-7.92-4.907-10.46-5.646l.91-2.869c2.99.869 7.4 3.05 11.5 6.168 4.09 3.116 8.05 7.3 9.88 12.255 1.45 3.904 1 8.038-.12 12.285-.7 2.681-1.73 5.564-2.79 8.545-.59 1.677-1.2 3.386-1.77 5.107-3.3 10 .97 16.7 6.15 23.994.25.341.49.684.74 1.028 4.94 6.929 10.38 14.552 8.85 25.597-.02 9.728-2.74 17.607-7.39 23.851-4.65 6.254-11.16 10.78-18.61 13.899-16.28 6.816-22.51 16.395-23.61 26.454-1.13 10.234 3 21.277 8.19 30.952 4.39 8.2 4.07 16.084 2.06 22.242-1.01 3.072-2.44 5.724-3.93 7.792-1.46 2.038-3.06 3.611-4.46 4.415-7.38 4.238-10.85 8.4-12.29 13.411-1.47 5.149-.87 11.405.5 20.058 1.35 8.53-.33 13.521-4.08 16.937-1.8 1.641-4 2.837-6.282 3.902-1.022.477-2.089.939-3.159 1.403l-.385.166a107.85 107.85 0 0 0-3.651 1.644c-1.705.816-3.462 2.534-5.002 5.246-1.531 2.696-2.79 6.277-3.551 10.649l-3.09-.493c.805-4.622 2.156-8.537 3.889-11.588 1.723-3.034 3.881-5.313 6.353-6.496a108.679 108.679 0 0 1 3.759-1.692l.384-.167c1.077-.467 2.101-.91 3.081-1.367 2.196-1.024 4.044-2.059 5.494-3.378 2.75-2.505 4.4-6.357 3.14-14.317-1.36-8.581-2.09-15.45-.42-21.299 1.71-5.988 5.87-10.698 13.69-15.189.87-.497 2.17-1.686 3.51-3.546 1.31-1.83 2.6-4.212 3.51-6.987 1.81-5.534 2.1-12.588-1.86-19.978-5.26-9.813-9.74-21.507-8.52-32.634 1.25-11.303 8.34-21.713 25.47-28.887 7.05-2.952 13.06-7.17 17.32-12.891 4.25-5.709 6.8-13 6.8-22.214v-.101l.02-.101c1.41-9.933-3.4-16.696-8.44-23.769-.21-.288-.41-.577-.62-.866-5.2-7.329-10.33-15.12-6.55-26.583.62-1.877 1.25-3.652 1.86-5.351 1.03-2.885 1.98-5.552 2.65-8.131 1.07-4.04 1.35-7.477.21-10.55-1.56-4.221-5.03-7.978-8.88-10.91z" clip-rule="evenodd"/>
    <circle cx="987" cy="390.5" r="6" fill="#4C4944"/>
    <circle cx="988" cy="282.5" r="6" fill="#4C4944"/>
    <rect width="16" height="26" x="973" y="319.5" fill="#4C4944" rx="8"/>
    <rect width="16" height="29" x="973" y="267.5" fill="#4C4944" rx="8"/>
    <path fill="#fff" d="M807 102.5l74-14v200l-74-11v-175z"/>
    <path fill="#F5F5F5" d="M807 277.5V103.04h20v164.852l-20 9.608z"/>
    <rect width="6" height="353" x="240" y="343" fill="#4C4944" rx="3"/>
    <path fill="#4C4944" fill-rule="evenodd" d="M179.376 317.848c4.602-4.35 10.113-7.094 13.814-8.299l.62 1.902c-3.466 1.128-8.705 3.735-13.061 7.851C176.405 323.408 173 328.954 173 336c0 8.883 4.433 15.518 9.328 20.351 2.446 2.416 4.993 4.366 7.132 5.908.624.45 1.172.837 1.683 1.197.402.283.781.55 1.155.819.784.562 1.467 1.076 1.909 1.518.309.309.915.779 1.813 1.426.612.441 1.327.94 2.125 1.497l1.101.77c2.489 1.746 5.55 3.938 8.522 6.436 2.969 2.495 5.882 5.321 8.059 8.345 2.173 3.018 3.673 6.316 3.673 9.733 0 5.146-1.282 10.881-2.858 15.923-1.579 5.052-3.474 9.477-4.748 12.024l-.043.088-.06.077c-1.948 2.517-4.906 7.169-7.373 12.873C201.949 440.691 200 447.384 200 454c0 8.091 4.265 13.706 9.246 17.654 4.033 3.197 8.433 5.229 11.354 6.579.712.329 1.337.618 1.847.873.534.266 1.12.541 1.74.83 2.147 1.003 4.693 2.192 6.817 3.912 2.824 2.286 4.996 5.557 4.996 10.652 0 4.018-1.404 8.054-3.107 11.426-1.665 3.296-3.656 6.038-5.042 7.621-.794 1.828-2.351 6.959-2.351 13.453 0 1.808.728 3.139 1.891 4.175 1.196 1.064 2.865 1.823 4.705 2.366 1.829.54 3.75.844 5.392 1.045.691.084 1.324.149 1.881.206l.307.032c.606.063 1.151.122 1.52.196l-.392 1.961c-.256-.051-.695-.102-1.334-.168l-.299-.031a95.5 95.5 0 0 1-1.925-.211c-1.686-.206-3.733-.526-5.717-1.112-1.972-.582-3.959-1.448-5.467-2.79-1.54-1.37-2.562-3.226-2.562-5.669 0-6.941 1.696-12.449 2.59-14.414l.062-.137.101-.113c1.277-1.438 3.228-4.091 4.854-7.312 1.631-3.228 2.893-6.942 2.893-10.524 0-4.405-1.828-7.134-4.254-9.098-1.914-1.549-4.146-2.594-6.26-3.582-.66-.31-1.309-.613-1.933-.925-.452-.226-1.029-.492-1.702-.803-2.903-1.338-7.6-3.504-11.847-6.871C202.735 469.045 198 462.909 198 454c0-6.984 2.051-13.958 4.582-19.809 2.508-5.798 5.516-10.558 7.567-13.224 1.226-2.467 3.056-6.75 4.584-11.64 1.549-4.958 2.767-10.472 2.767-15.327 0-2.832-1.25-5.722-3.296-8.564-2.041-2.835-4.816-5.54-7.722-7.983-2.903-2.439-5.905-4.59-8.384-6.329l-1.084-.758a191.89 191.89 0 0 1-2.163-1.524c-.879-.633-1.617-1.193-2.058-1.635-.308-.308-.859-.732-1.661-1.308-.317-.227-.694-.493-1.104-.782-.543-.383-1.144-.807-1.738-1.235-2.173-1.568-4.814-3.587-7.368-6.108C175.817 352.733 171 345.617 171 336c0-7.753 3.762-13.791 8.376-18.152z" clip-rule="evenodd"/>
    <rect width="6" height="182.629" x="239.188" y="572.879" fill="#4C4944" rx="3" transform="rotate(-38.033 239.188 572.879)"/>
    <rect width="6" height="182.773" x="241.602" y="569.069" fill="#4C4944" rx="3" transform="rotate(38.03 241.602 569.069)"/>
    <rect width="6" height="143.783" x="241.155" y="576" fill="#4C4944" rx="3" transform="rotate(29.662 241.155 576)"/>
    <rect width="6" height="143.783" x="238" y="576.969" fill="#4C4944" rx="3" transform="rotate(-29.66 238 576.969)"/>
    <path fill="#4C4944" d="M241.903 655.834l1.671-5.763 82.373 23.887-1.672 5.763z"/>
    <path fill="#4C4944" d="M243.374 650.5l1.67 5.763-82.372 23.884-1.671-5.762z"/>
    <circle cx="240" cy="405.5" r="6" fill="#4C4944"/>
    <circle cx="237" cy="456" r="6" fill="#4C4944"/>
    <rect width="16" height="29" x="235" y="441" fill="#4C4944" rx="8"/>
    <circle cx="267" cy="296" r="76" fill="#4C4944"/>
    <circle cx="267" cy="296" r="70" fill="#615D56"/>
    <circle cx="243" cy="287" r="33" fill="#4C4944"/>
    <circle cx="243" cy="331" r="14" fill="#4C4944"/>
    <path fill="#F16D64" d="M535.161 427.65a.48.48 0 0 1-.335-.136l-5.468-5.335a.48.48 0 0 1-.039-.645l11.402-14.203a.481.481 0 0 1 .835.442l-5.935 19.538a.483.483 0 0 1-.34.326.604.604 0 0 1-.12.013zm-4.819-5.854l4.59 4.478 4.981-16.399-9.571 11.921z"/>
    <path fill="#F16D64" d="M525.871 419.759a.46.46 0 0 1-.147-.023l-6.891-2.223a.482.482 0 0 1-.041-.9l22.116-9.424a.481.481 0 0 1 .481.824l-15.226 11.647a.475.475 0 0 1-.292.099zm-5.519-2.765l5.426 1.75 11.989-9.172-17.415 7.422z"/>
    <path fill="#F16D64" d="M525.801 426.606a.48.48 0 0 1-.481-.481v-6.846c0-.151.07-.292.189-.382l15.225-11.647a.482.482 0 0 1 .664.688l-15.226 18.493a.485.485 0 0 1-.371.175zm.481-7.09v5.268l11.715-14.23-11.715 8.962z"/>
</svg>
