<svg xmlns="http://www.w3.org/2000/svg" width="949" height="610" fill="none" viewBox="0 0 949 610">
    <ellipse cx="813.724" cy="531.678" fill="#E5E4E4" rx="135.276" ry="21.963"/>
    <ellipse cx="449.679" cy="591.269" fill="#E5E4E4" rx="79.014" ry="12.847"/>
    <ellipse cx="201.466" cy="589.694" fill="#E5E4E4" rx="127.002" ry="20.306"/>
    <path fill="#D8D6D4" d="M202.707 441.753l6.517-426.834h535.199l39.102 426.834H202.707z"/>
    <path fill="#fff" fill-rule="evenodd" d="M214.29 10.774h527.039V416.89h-.679l199.249 43.926H0l213.131-43.926h1.159V10.774z" clip-rule="evenodd"/>
    <path fill="#4C4944" fill-rule="evenodd" d="M194.433 9.928c0-5.483 4.446-9.928 9.929-9.928 5.483 0 9.928 4.445 9.928 9.929v9.98c0 5.483-4.445 9.928-9.928 9.928-5.483 0-9.929-4.445-9.929-9.929v-9.98zm546.896.846H214.29v8.01h527.039v1.124c0 5.484 4.445 9.929 9.928 9.929 5.484 0 9.929-4.445 9.929-9.928v-9.98c0-5.484-4.445-9.929-9.929-9.929-5.483 0-9.928 4.445-9.928 9.928v.846z" clip-rule="evenodd"/>
    <path fill="#4C4944" d="M500.492 592.767a2.747 2.747 0 0 0 1.752-3.283l-49.421-190.498h-5.13L398.21 588.822a2.86 2.86 0 1 0 5.538 1.432l43.945-171.293v172.23a2.565 2.565 0 0 0 5.13 0V418.878l44.1 171.978a2.747 2.747 0 0 0 3.569 1.911z"/>
    <path fill="#4C4944" d="M455.719 371.885h-11.087v45.418h11.087v-45.418z"/>
    <path fill="#4C4944" d="M457.456 415.645c0 1.078-.91 1.99-1.986 1.99h-10.673c-1.075 0-1.985-.912-1.985-1.99v-5.967c0-1.077.91-1.989 1.985-1.989h10.673c1.076 0 1.986.912 1.986 1.989v5.967zM459.194 369.564h-18.203v6.63h18.203v-6.63z"/>
    <path fill="#4C4944" d="M491.627 363.431c0 3.564-2.896 6.464-6.454 6.464h-70.161c-3.558 0-6.454-2.9-6.454-6.464v-34.478c0-3.564 2.896-6.465 6.454-6.465h70.161c3.558 0 6.454 2.901 6.454 6.465v34.478z"/>
    <path fill="#4C4944" d="M462.255 309.144h-24.656l-8.605 14.256h42.362l-9.101-14.256zm-2.813 10.526h-18.699v-6.631h18.699v6.631z"/>
    <path fill="#fff" d="M463.33 328.952h-46.333v33.981h46.333v-33.981z"/>
    <path fill="#F16D64" d="M433.276 333.541s.408 13.938-1.926 16.318c-2.334 2.38-4.781 5.17-3.983 6.811.798 1.642 4.219 2.334 6.473-.085 2.255-2.419 3.614-3.455 4.216-3.714.602-.259 3.633-1.295 2.93-3.435-.674-2.135-1.125-3.616-1.111-6.652.014-3.035-.065-9.15-.065-9.15s-5.247-.599-6.534-.093z"/>
    <mask id="a" width="15" height="26" x="427" y="333" maskUnits="userSpaceOnUse">
        <path fill="#5FA7A4" d="M433.276 333.541s.408 13.938-1.926 16.318c-2.334 2.38-4.781 5.17-3.983 6.811.798 1.642 4.219 2.334 6.473-.085 2.255-2.419 3.614-3.455 4.216-3.714.602-.259 3.633-1.295 2.93-3.435-.674-2.135-1.125-3.616-1.111-6.652.014-3.035-.065-9.15-.065-9.15s-5.247-.599-6.534-.093z"/>
    </mask>
    <g mask="url(#a)">
        <path fill="#fff" fill-opacity=".3" fill-rule="evenodd" d="M440.577 339.473a.119.119 0 0 1-.126.096l-.028-.003c-4.774-1.16-7.952-.087-7.983-.063a.136.136 0 0 1-.16-.078c-.02-.06-.023-.458.037-.478.031-.024 3.272-1.145 8.126.054.056.007.146.388.134.472zm-.082 2.913c.055.007.187-.543.194-.598.011-.084-.037-.147-.092-.155-4.854-1.199-8.095-.078-8.127-.054-.059.021-.098.101-.078.16.007.02.013.094.02.183.014.177.032.411.071.397.032-.024 3.21-1.097 7.984.063l.028.004zm.413 2.81c-.028-.004-.032.024-.032.024-.035.052-.119.04-.146.037-4.792-2.497-7.847-.868-7.878-.844-.087.017-.143.009-.191-.054-.017-.087-.009-.143.054-.191.123-.069 3.181-1.726 8.132.849.08.039.096.127.061.179zm-3.882 8.784l-.028-.004c-.059.02-.139-.019-.135-.047-2.188-4.981-5.588-5.613-5.616-5.617-.083-.012-.131-.075-.12-.158.011-.084.074-.132.158-.121.139.019 3.567.655 5.82 5.787.02.06-.019.14-.079.16zm-1.099 1.213c-.003.028-.031.025-.031.025-.06.02-.112-.016-.128-.103-2.641-4.642-6.029-4.996-6.149-5.009h-.003c-.087.017-.135-.047-.124-.13-.016-.088.047-.136.13-.125.143-.009 3.617.293 6.36 5.151.02.06.009.143-.055.191zm-.835 1.562c.014.002.022-.004.03-.01s.016-.012.029-.01a.137.137 0 0 0 .027-.196c-3.21-4.552-6.704-4.487-6.847-4.478-.056-.008-.123.068-.13.124-.012.083.068.123.124.13h.009c.205.004 3.57.055 6.626 4.365.049.064.076.067.132.075zm5.193-9.259l.031-.024c.036-.052.019-.14-.033-.175-4.356-3.092-7.525-2.095-7.917-1.972a.346.346 0 0 1-.036.011c-.059.02-.099.1-.078.16.02.059.1.099.159.078.032-.024 3.284-1.228 7.703 1.927.08.039.139.019.171-.005zm-1.517 3.669c-.008.006-.016.012-.03.01-.056-.008-.111-.015-.132-.075-3.031-4.31-6.394-4.384-6.595-4.389h-.009c-.055-.007-.135-.047-.124-.13.008-.056.075-.132.13-.125.143-.009 3.61-.077 6.816 4.503a.137.137 0 0 1-.027.196c-.014-.002-.021.004-.029.01z" clip-rule="evenodd"/>
    </g>
    <path fill="#C2433B" d="M433.275 333.541c1.288-.506 6.534.093 6.534.093s.008 1.619.022 3.608c0 0-5.032-.513-6.542-.037.033-2.125-.014-3.664-.014-3.664zM432.698 357.48c-2.128 1.272-4.667.558-5.328-.837-.355-.73-.055-1.683.569-2.734.007-.055 3.265-.464 4.759 3.571z"/>
    <path fill="#fff" fill-opacity=".3" d="M439.109 340.693l.588-.573-.576-.561-.588.573.576.561zM437.859 339.528l-.577.575.575.577.577-.575-.575-.577zM436.589 339.538l-.576.575.575.578.576-.576-.575-.577zM435.338 339.526l-.577.575.575.578.577-.576-.575-.577zM434.068 339.534l-.577.575.575.578.577-.575-.575-.578z"/>
    <path fill="#C2433B" d="M440.159 346.542c.182.961.458 1.85.803 2.862.674 2.136-2.329 3.176-2.931 3.435-.119.04-.241.109-.396.202-2.415-4.559 2.524-6.499 2.524-6.499z"/>
    <path fill="#A25921" d="M427.339 356.666c-.444-.911.119-2.141 1.067-3.488.064 5.175 4.164 2.524 4.863 1.342 1.566-2.57 4.029-2.547 5.565-3.843 1.342-1.124-.729-4.244-.782-7.204-.035-2.673 1.092-6.807.113-8.16-.951-1.35-4.882-.153-4.882-.153-.007-.994-.036-1.623-.036-1.623 1.288-.506 6.534.093 6.534.093s.055 6.083.065 9.15c-.014 3.036.437 4.517 1.112 6.652.674 2.136-2.329 3.176-2.931 3.435-.602.259-1.961 1.295-4.215 3.714-2.251 2.391-5.672 1.699-6.473.085z" opacity=".4" style="mix-blend-mode:multiply"/>
    <path stroke="#F16D64" stroke-dasharray="0.78 0.39" stroke-width=".194" d="M444.937 333.862a4.473 4.473 0 0 0-.351.101l.031.092a2.14 2.14 0 0 0-.257.103l.005.031.045.286-.096.015.06.389.096-.014.115.785-.096.014.055.392.096-.014.107.79-.096.013.051.39.096-.013.098.789-.096.011.046.392.097-.012c.03.257.059.521.089.79l-.097.01.042.392.097-.01c.027.259.054.522.079.789l-.097.009.037.395.097-.009c.024.261.047.525.069.79l-.097.008.031.395.097-.008c.02.263.038.527.055.791l-.097.006.024.396.097-.006c.015.265.029.53.04.792l-.097.005.015.395.097-.003c.01.267.017.532.021.794l-.097.001.004.394h.097c.002.27 0 .535-.005.795l-.097-.002c-.003.134-.006.266-.011.396l.097.004c-.009.272-.023.537-.042.792l-.096-.006c-.01.134-.021.266-.034.396l.097.009c-.026.277-.059.542-.099.792l-.096-.016a7.904 7.904 0 0 1-.07.387l.095.019a5.93 5.93 0 0 1-.209.78l-.092-.032a3.549 3.549 0 0 1-.151.365l.087.043c-.064.13-.134.248-.211.351l-.234.315-.078-.058-.232.317.079.057c-.154.211-.306.423-.456.637l-.08-.056-.224.322.081.055c-.15.217-.295.434-.436.65l-.081-.053c-.072.11-.142.22-.211.33l.082.052c-.142.225-.277.448-.404.669l-.084-.049c-.066.115-.13.229-.191.342l.085.047c-.128.236-.246.468-.351.695l-.088-.041a9.19 9.19 0 0 0-.158.36l.09.037a6.29 6.29 0 0 0-.253.729l-.094-.026a4.546 4.546 0 0 0-.088.383l.096.017a2.685 2.685 0 0 0-.039.753l-.096.011c.014.134.041.261.082.382l.092-.031c.04.117.093.227.161.329.071.106.155.207.251.3l-.068.07c.097.093.204.18.321.259l.055-.081c.209.142.452.258.719.345l-.03.092c.128.042.262.077.399.105l.02-.095c.254.051.523.078.801.077l.001.098c.135-.001.273-.007.412-.021l-.009-.097c.262-.025.528-.074.794-.15l.027.094c.13-.038.261-.081.391-.131l-.034-.091c.245-.094.489-.212.726-.355l.05.083c.116-.07.231-.146.344-.228l-.057-.079c.212-.154.417-.33.611-.53l.07.068c.094-.097.186-.2.276-.307l-.075-.062c.085-.103.168-.21.247-.323l.219-.308.079.057.221-.305-.079-.058c.155-.212.305-.414.449-.605l.078.058.228-.299-.077-.059c.162-.211.318-.408.466-.592l.076.061c.081-.101.161-.199.238-.292l-.074-.062c.174-.21.338-.401.491-.574l.073.065c.088-.099.172-.191.253-.278l-.071-.066c.198-.213.376-.391.535-.539l.066.071c.103-.095.197-.178.283-.247l-.062-.076a2.82 2.82 0 0 1 .478-.321l.201-.116.049.084c.107-.063.228-.135.358-.218l-.053-.082c.213-.135.446-.295.674-.479l.061.076c.107-.086.214-.178.316-.274l-.066-.071c.2-.188.384-.393.533-.614l.081.054c.078-.117.148-.238.205-.364l-.088-.04c.11-.242.172-.499.167-.769l.097-.002a1.791 1.791 0 0 0-.057-.414l-.094.025a2.048 2.048 0 0 0-.14-.374v-.001l-.161-.342.088-.041a86.601 86.601 0 0 1-.159-.341l-.088.041a35.66 35.66 0 0 1-.31-.689l.089-.039c-.051-.115-.1-.231-.148-.346l-.09.037c-.097-.232-.19-.465-.278-.704l.091-.034a18.422 18.422 0 0 1-.126-.354l-.092.031c-.08-.233-.156-.473-.228-.723l.093-.027a13.45 13.45 0 0 1-.099-.363l-.094.025c-.062-.235-.12-.48-.175-.737l.095-.021c-.026-.12-.051-.243-.076-.369l-.095.019c-.046-.237-.09-.485-.131-.745l.096-.015c-.02-.122-.038-.246-.057-.373l-.096.014a17.108 17.108 0 0 1-.051-.375l-.05-.376.096-.013-.05-.378-.097.013-.103-.756.096-.013-.052-.378-.096.013-.106-.755.096-.014-.053-.377-.097.013-.107-.755.096-.013-.054-.378-.096.014-.108-.755.096-.014-.055-.377-.096.014-.109-.755.096-.014-.055-.378-.096.014-.111-.755.097-.014-.056-.376-.096.014-.111-.755.096-.014-.055-.378-.097.014-.041-.277-.001-.013h-.01l-.267.008-.004-.097-.363.013.004.097c-.21.009-.457.019-.729.033l-.005-.097-.364.02.006.097c-.232.013-.477.029-.727.047l-.007-.097-.364.027.008.097c-.241.019-.484.04-.725.064l-.01-.097-.363.038.011.097c-.247.027-.489.058-.721.091l-.013-.096c-.124.018-.245.036-.362.056l.016.096a9.44 9.44 0 0 0-.707.143l-.024-.094z"/>
    <path stroke="#F16D64" stroke-dasharray="0.78 0.39" stroke-width=".097" d="M451.274 336.858s-5.056.148-6.491.817M446.834 358.015c-1.948-3.806-5.034-2.975-5.034-2.919M452.746 345.889s-4.644 2.569-1.656 6.773"/>
    <path fill="#615D56" d="M477.975 362.602c4.524 0 8.191-3.674 8.191-8.205 0-4.532-3.667-8.205-8.191-8.205-4.524 0-8.191 3.673-8.191 8.205 0 4.531 3.667 8.205 8.191 8.205z"/>
    <path fill="#4C4944" d="M477.975 360.779c3.519 0 6.371-2.858 6.371-6.382 0-3.525-2.852-6.382-6.371-6.382-3.518 0-6.371 2.857-6.371 6.382 0 3.524 2.853 6.382 6.371 6.382z"/>
    <path fill="#615D56" d="M477.396 332.268c0 .497-.331.829-.828.829h-4.964c-.496 0-.827-.332-.827-.829v-2.487c0-.497.331-.829.827-.829h4.964c.497 0 .828.332.828.829v2.487zM477.396 338.898c0 .497-.331.829-.828.829h-4.964c-.496 0-.827-.332-.827-.829v-2.486c0-.498.331-.829.827-.829h4.964c.497 0 .828.331.828.829v2.486zM486.497 332.268c0 .497-.331.829-.827.829h-4.965c-.496 0-.827-.332-.827-.829v-2.487c0-.497.331-.829.827-.829h4.965c.496 0 .827.332.827.829v2.487zM486.497 338.898c0 .497-.331.829-.827.829h-4.965c-.496 0-.827-.332-.827-.829v-2.486c0-.498.331-.829.827-.829h4.965c.496 0 .827.331.827.829v2.486z"/>
    <path fill="#B5BAB6" fill-opacity=".15" d="M362.592 123.419v9.344h-9.856l-.064-9.344h-18.24v-6.72l12.288-28.288 8.576 3.2-10.432 24.256h7.936l1.088-10.24h8.704v10.24h4.864v7.552h-4.864zm24.988-34.816c5.29 0 9.322 1.941 12.096 5.824 2.816 3.882 4.224 9.472 4.224 16.768 0 7.253-1.408 12.842-4.224 16.768-2.774 3.925-6.806 5.888-12.096 5.888-5.291 0-9.344-1.963-12.16-5.888-2.774-3.926-4.16-9.515-4.16-16.768 0-7.296 1.386-12.886 4.16-16.768 2.816-3.883 6.869-5.824 12.16-5.824zm0 7.488c-1.451 0-2.603.469-3.456 1.408-.854.938-1.494 2.496-1.92 4.672-.384 2.176-.576 5.184-.576 9.024 0 3.84.192 6.869.576 9.088.426 2.176 1.066 3.733 1.92 4.672.853.938 2.005 1.408 3.456 1.408 1.45 0 2.602-.448 3.456-1.344.853-.939 1.472-2.496 1.856-4.672.426-2.219.64-5.27.64-9.152 0-3.883-.214-6.912-.64-9.088-.384-2.219-1.003-3.776-1.856-4.672-.854-.896-2.006-1.344-3.456-1.344zm48.637 27.328v9.344h-9.856l-.064-9.344h-18.24v-6.72l12.288-28.288 8.576 3.2-10.432 24.256h7.936l1.088-10.24h8.704v10.24h4.864v7.552h-4.864z"/>
    <path fill="#4C4944" d="M661.901 228.095V85.311a5 5 0 0 1 4.006-4.9l63.689-12.912a4.825 4.825 0 0 1 3.392.54c4.883 2.826 20.111 11.973 32.748 23.13 11.445 10.103 19.858 23.327 21.512 26.936.138 19.615.331 62.574 0 77.493-.311 14.033-33.104 38.211-52.374 50.459-2.218 1.41-4.909 1.836-7.468 1.241l-61.638-14.333a5 5 0 0 1-3.867-4.87z"/>
    <path fill="#4C4944" d="M786.834 142.14h59.982c6.627 0 12 5.373 12 12v5.008c0 6.628-5.373 12-12 12h-59.982V142.14z"/>
    <path fill="#4C4944" d="M796.74 140.928c-.432-4.688 3.258-8.734 7.966-8.734h14.726c4.708 0 8.398 4.046 7.966 8.734l-3.49 37.873a8 8 0 0 1-7.966 7.266h-7.746a8 8 0 0 1-7.966-7.266l-3.49-37.873z"/>
    <rect width="4.964" height="339.81" x="809.173" y="182.751" fill="#4C4944" rx="2.482"/>
    <rect width="4.968" height="151.435" fill="#4C4944" rx="2.484" transform="rotate(-38.081 1013.832 -960.771) skewX(-.096)"/>
    <path fill="#4C4944" d="M809.536 419.007a4.978 4.978 0 0 1 .854 6.979l-87.616 112.216a2.478 2.478 0 0 1-3.484.426 2.488 2.488 0 0 1-.427-3.489l90.673-116.132z"/>
    <rect width="4.966" height="119.118" fill="#4C4944" rx="2.483" transform="rotate(29.704 -388.837 1740.969) skewX(.085)"/>
    <rect width="4.966" height="119.118" fill="#4C4944" rx="2.483" transform="rotate(-29.702 1208.96 -1310.807) skewX(-.085)"/>
    <path fill="#4C4944" d="M810.748 489.686l1.383-4.776 68.153 19.798-1.382 4.776z"/>
    <path fill="#4C4944" d="M811.964 485.265l1.382 4.776-68.154 19.796-1.382-4.776z"/>
    <path fill="#4C4944" fill-rule="evenodd" d="M864.484 167.431c-3.186-2.429-6.551-4.067-8.656-4.68l.753-2.377c2.476.72 6.127 2.528 9.516 5.112 3.388 2.583 6.657 6.05 8.176 10.156 1.197 3.236.827 6.662-.099 10.183-.584 2.222-1.432 4.611-2.309 7.082-.493 1.39-.996 2.806-1.465 4.232-2.73 8.289.804 13.842 5.09 19.887.2.283.403.567.606.852 4.091 5.742 8.592 12.061 7.323 21.214-.016 8.063-2.268 14.594-6.11 19.768-3.848 5.184-9.239 8.935-15.401 11.52-13.47 5.649-18.618 13.588-19.534 21.925-.931 8.482 2.487 17.634 6.776 25.653 3.635 6.797 3.374 13.331 1.706 18.435-.832 2.546-2.015 4.744-3.247 6.458-1.214 1.689-2.537 2.992-3.697 3.659-6.106 3.513-8.977 6.962-10.163 11.115-1.219 4.267-.723 9.452.41 16.624 1.117 7.07-.275 11.207-3.377 14.038-1.49 1.36-3.305 2.351-5.195 3.234-.846.395-1.728.778-2.614 1.162l-.318.138c-1 .435-2.008.877-3.021 1.362-1.41.677-2.864 2.101-4.138 4.349-1.267 2.234-2.309 5.202-2.939 8.825l-2.556-.408c.666-3.831 1.784-7.075 3.217-9.604 1.426-2.515 3.212-4.404 5.257-5.384a91.555 91.555 0 0 1 3.11-1.403l.318-.138c.891-.387 1.738-.754 2.549-1.133 1.817-.849 3.344-1.706 4.543-2.8 2.274-2.076 3.644-5.268 2.602-11.866-1.124-7.111-1.733-12.804-.348-17.652 1.418-4.963 4.859-8.867 11.33-12.59.715-.411 1.787-1.397 2.896-2.938 1.09-1.517 2.156-3.491 2.908-5.791 1.498-4.586 1.737-10.433-1.539-16.558-4.35-8.133-8.06-17.824-7.047-27.047 1.028-9.368 6.895-17.995 21.072-23.942 5.831-2.446 10.809-5.943 14.329-10.684 3.513-4.731 5.629-10.774 5.629-18.411v-.084l.012-.083c1.171-8.233-2.815-13.838-6.983-19.7l-.51-.718c-4.306-6.074-8.547-12.531-5.418-22.032a194.606 194.606 0 0 1 1.536-4.435c.849-2.391 1.635-4.601 2.197-6.739.881-3.348 1.111-6.197.169-8.744-1.294-3.498-4.158-6.612-7.346-9.042z" clip-rule="evenodd"/>
    <ellipse cx="816.62" cy="323.648" fill="#4C4944" rx="4.964" ry="4.973"/>
    <ellipse cx="817.447" cy="234.137" fill="#4C4944" rx="4.964" ry="4.973"/>
    <rect width="13.238" height="21.549" x="805.036" y="264.803" fill="#4C4944" rx="6.619"/>
    <rect width="13.238" height="24.035" x="805.036" y="221.705" fill="#4C4944" rx="6.619"/>
    <path fill="#fff" d="M667.692 84.953l61.226-11.604V239.11l-61.226-9.117V84.953z"/>
    <path fill="#F5F5F5" d="M667.692 229.993V85.4h16.548v136.63l-16.548 7.963z"/>
    <rect width="4.964" height="292.568" x="198.57" y="284.28" fill="#4C4944" rx="2.482"/>
    <path fill="#4C4944" fill-rule="evenodd" d="M148.411 263.434c3.808-3.606 8.368-5.88 11.43-6.878l.512 1.576c-2.867.935-7.202 3.095-10.805 6.507-3.595 3.403-6.412 7.999-6.412 13.839 0 7.363 3.668 12.861 7.718 16.867 2.024 2.003 4.131 3.619 5.901 4.897.516.373.969.693 1.392.991.333.235.646.457.956.679.648.467 1.214.893 1.579 1.259.256.256.757.646 1.5 1.181.507.366 1.098.779 1.759 1.242.29.203.594.415.91.638 2.06 1.446 4.592 3.263 7.052 5.334 2.455 2.067 4.866 4.41 6.667 6.916 1.798 2.501 3.039 5.235 3.039 8.067 0 4.265-1.061 9.018-2.365 13.197-1.306 4.187-2.874 7.854-3.928 9.966l-.036.072-.049.064c-1.612 2.086-4.059 5.942-6.101 10.669-2.042 4.73-3.655 10.277-3.655 15.76 0 6.706 3.529 11.359 7.65 14.632 3.337 2.649 6.977 4.334 9.394 5.452.59.273 1.107.512 1.529.724.441.221.926.448 1.439.688 1.776.831 3.883 1.817 5.64 3.242 2.337 1.895 4.134 4.606 4.134 8.829 0 3.33-1.162 6.675-2.571 9.47-1.378 2.731-3.024 5.003-4.171 6.316-.657 1.515-1.946 5.767-1.946 11.15 0 1.498.602 2.602 1.565 3.46.989.882 2.37 1.511 3.892 1.961 1.514.447 3.104.7 4.462.866.571.07 1.095.124 1.556.171l.254.026c.501.052.953.101 1.258.162l-.325 1.626a14.256 14.256 0 0 0-1.103-.139l-.248-.026a78.412 78.412 0 0 1-1.592-.175c-1.395-.17-3.089-.436-4.73-.921-1.632-.483-3.276-1.2-4.524-2.313-1.274-1.136-2.119-2.674-2.119-4.698 0-5.753 1.403-10.318 2.142-11.946l.052-.114.083-.094c1.057-1.191 2.671-3.391 4.017-6.06 1.349-2.675 2.393-5.753 2.393-8.722 0-3.651-1.513-5.913-3.52-7.54-1.583-1.285-3.43-2.15-5.179-2.97a68.85 68.85 0 0 1-1.6-.767c-.374-.187-.851-.407-1.408-.665-2.401-1.109-6.287-2.904-9.802-5.694-4.359-3.462-8.277-8.547-8.277-15.931 0-5.788 1.697-11.568 3.792-16.418 2.075-4.805 4.563-8.751 6.26-10.96 1.015-2.045 2.529-5.594 3.793-9.647 1.282-4.109 2.289-8.68 2.289-12.703 0-2.348-1.034-4.743-2.727-7.098-1.689-2.35-3.984-4.592-6.389-6.616-2.401-2.022-4.885-3.805-6.937-5.246l-.896-.628c-.666-.466-1.273-.891-1.79-1.263-.727-.525-1.338-.989-1.703-1.355-.255-.256-.71-.607-1.374-1.084-.262-.188-.574-.409-.913-.649-.45-.317-.947-.669-1.438-1.023-1.799-1.299-3.984-2.973-6.096-5.062-4.224-4.179-8.21-10.076-8.21-18.047 0-6.426 3.113-11.43 6.93-15.044z" clip-rule="evenodd"/>
    <rect width="4.968" height="151.265" fill="#4C4944" rx="2.484" transform="rotate(-38.081 786.826 -49.305) skewX(-.096)"/>
    <rect width="4.968" height="151.384" fill="#4C4944" rx="2.484" transform="rotate(38.078 -583.423 525.452) skewX(.096)"/>
    <rect width="4.966" height="119.118" fill="#4C4944" rx="2.483" transform="rotate(29.704 -800.351 614.899) skewX(.085)"/>
    <rect width="4.966" height="119.118" fill="#4C4944" rx="2.483" transform="rotate(-29.702 1000.138 -132.204) skewX(-.085)"/>
    <path fill="#4C4944" d="M200.145 543.558l1.383-4.776 68.153 19.798-1.382 4.776z"/>
    <path fill="#4C4944" d="M201.361 539.137l1.382 4.776-68.154 19.796-1.382-4.776z"/>
    <ellipse cx="198.57" cy="336.08" fill="#4C4944" rx="4.964" ry="4.973"/>
    <ellipse cx="196.088" cy="377.935" fill="#4C4944" rx="4.964" ry="4.973"/>
    <rect width="13.238" height="24.035" x="194.433" y="365.503" fill="#4C4944" rx="6.619"/>
    <ellipse cx="220.91" cy="245.326" fill="#4C4944" rx="62.881" ry="62.989"/>
    <ellipse cx="220.909" cy="245.326" fill="#615D56" rx="57.916" ry="58.016"/>
    <ellipse cx="201.052" cy="237.867" fill="#4C4944" rx="27.303" ry="27.351"/>
    <ellipse cx="201.052" cy="274.334" fill="#4C4944" rx="11.583" ry="11.603"/>
    <path fill="#F16D64" d="M441.401 53.765s2.102 71.73-9.912 83.977c-12.014 12.248-24.605 26.608-20.499 35.056 4.107 8.448 21.711 12.008 33.314-.441 11.604-12.45 18.597-17.782 21.695-19.114 3.097-1.333 18.696-6.665 15.082-17.675-3.471-10.991-5.794-18.612-5.72-34.235.073-15.623-.333-47.09-.333-47.09s-27.003-3.085-33.627-.478z"/>
    <mask id="b" width="72" height="129" x="410" y="52" maskUnits="userSpaceOnUse">
        <path fill="#5FA7A4" d="M441.401 53.765s2.102 71.73-9.912 83.977c-12.014 12.248-24.605 26.608-20.499 35.056 4.107 8.448 21.711 12.008 33.314-.441 11.604-12.45 18.597-17.782 21.695-19.114 3.097-1.333 18.696-6.665 15.082-17.675-3.471-10.991-5.794-18.612-5.72-34.235.073-15.623-.333-47.09-.333-47.09s-27.003-3.085-33.627-.478z"/>
    </mask>
    <g mask="url(#b)">
        <path fill="#fff" fill-opacity=".3" fill-rule="evenodd" d="M478.981 84.293c-.039.286-.364.534-.651.496l-.143-.02c-24.57-5.968-40.924-.446-41.086-.322-.306.104-.716-.098-.821-.404-.104-.306-.119-2.354.187-2.458.163-.124 16.842-5.894 41.822.276.287.039.75 2.001.692 2.432zm-.425 14.99c.286.04.961-2.791 1-3.078.058-.43-.19-.756-.476-.795-24.98-6.17-41.659-.4-41.822-.276-.306.104-.507.515-.403.821.035.103.065.485.101.944.072.907.167 2.112.37 2.043.163-.124 16.516-5.646 41.086.322l.144.02zm2.125 14.461c-.143-.019-.162.124-.162.124-.182.268-.612.209-.755.19-24.66-12.847-40.38-4.464-40.543-4.34-.449.085-.735.047-.983-.279-.085-.45-.046-.737.279-.985.632-.353 16.371-8.88 41.851 4.371.411.202.495.652.313.919zm-19.976 45.208l-.144-.02c-.305.105-.716-.097-.696-.24-11.26-25.637-28.759-28.891-28.902-28.911-.43-.058-.678-.384-.619-.814.058-.431.383-.679.813-.62.716.097 18.358 3.371 29.951 29.783.104.306-.097.717-.403.822zm-5.659 6.244c-.019.144-.162.124-.162.124-.306.105-.573-.078-.658-.528-13.594-23.891-31.026-25.712-31.644-25.777l-.016-.001c-.449.085-.697-.241-.638-.671-.085-.45.24-.698.67-.64.735-.046 18.61 1.506 32.727 26.508.105.307.046.737-.279.985zm-4.297 8.037c.072.01.112-.021.153-.052.041-.031.081-.062.153-.053a.7.7 0 0 0 .136-1.004c-16.518-23.429-34.502-23.096-35.238-23.05-.286-.039-.631.352-.67.639-.058.431.352.632.639.671l.048.002h.001c1.053.016 18.371.28 34.101 22.463.247.326.391.345.677.384zm26.726-47.652l.162-.124c.182-.267.097-.717-.17-.9-22.417-15.912-38.73-10.78-40.746-10.146a3.984 3.984 0 0 1-.184.056c-.306.105-.508.516-.403.822.104.306.514.508.82.404.163-.124 16.9-6.324 39.642 9.915.41.202.716.097.879-.027zm-7.808 18.882c-.041.032-.081.063-.153.053-.286-.039-.573-.078-.677-.384-15.602-22.18-32.911-22.565-33.94-22.587l-.048-.002c-.286-.039-.697-.241-.638-.671.039-.287.383-.678.67-.64.735-.046 18.577-.398 35.075 23.175a.701.701 0 0 1-.136 1.004c-.072-.01-.112.021-.153.052z" clip-rule="evenodd"/>
    </g>
    <path fill="#C2433B" d="M441.401 53.765c6.624-2.607 33.627.478 33.627.478s.038 8.333.11 18.57c0 0-25.895-2.642-33.665-.191.168-10.935-.072-18.857-.072-18.857zM438.43 176.964c-10.95 6.548-24.017 2.874-27.42-4.309-1.825-3.755-.286-8.659 2.926-14.067.038-.287 16.805-2.392 24.494 18.376z"/>
    <path fill="#fff" fill-opacity=".3" d="M471.421 90.57l3.025-2.949-2.964-2.886-3.025 2.95 2.964 2.886zM464.988 84.575l-2.968 2.964 2.958 2.973 2.969-2.963-2.959-2.974zM458.457 84.624l-2.968 2.965 2.96 2.972 2.968-2.965-2.96-2.972zM452.014 84.56l-2.969 2.965 2.959 2.974 2.969-2.964-2.959-2.974zM445.482 84.606l-2.971 2.962 2.959 2.974 2.97-2.962-2.958-2.974z"/>
    <path fill="#C2433B" d="M476.827 120.672c.934 4.948 2.356 9.524 4.13 14.733 3.471 10.991-11.984 16.342-15.082 17.675-.611.209-1.243.561-2.036 1.038-12.43-23.458 12.988-33.446 12.988-33.446z"/>
    <path fill="#A25921" d="M410.847 172.779c-2.281-4.694.617-11.02 5.494-17.955.332 26.636 21.431 12.993 25.027 6.906 8.061-13.222 20.735-13.107 28.639-19.777 6.908-5.782-3.752-21.841-4.023-37.072-.179-13.758 5.618-35.032.581-42-4.893-6.946-25.126-.783-25.126-.783-.036-5.118-.182-8.353-.182-8.353 6.625-2.606 33.627.478 33.627.478s.283 31.305.334 47.091c-.074 15.623 2.249 23.244 5.72 34.235 3.471 10.99-11.985 16.342-15.082 17.674-3.098 1.333-10.091 6.665-21.695 19.114-11.584 12.306-29.187 8.746-33.314.442z" opacity=".4" style="mix-blend-mode:multiply"/>
    <path stroke="#F16D64" stroke-dasharray="4 2" d="M501.417 55.415a23.57 23.57 0 0 0-1.805.52l.159.474a11.22 11.22 0 0 0-1.324.531l.026.157c.054.337.133.834.233 1.476l-.494.077c.087.56.19 1.23.306 2.001l.495-.074c.172 1.14.372 2.499.592 4.041l-.495.071c.092.641.187 1.314.284 2.017l.496-.07c.175 1.265.36 2.625.55 4.066l-.496.065c.086.653.173 1.322.261 2.007l.496-.064c.166 1.3.336 2.656.505 4.058l-.497.06c.08.66.16 1.332.24 2.013l.496-.058c.155 1.321.309 2.677.459 4.061l-.497.055c.073.666.145 1.338.216 2.017l.497-.053c.14 1.334.277 2.69.409 4.061l-.498.048c.065.674.129 1.351.191 2.031l.498-.045c.123 1.344.24 2.7.351 4.064l-.498.04c.055.677.108 1.355.16 2.033l.498-.038c.103 1.355.199 2.713.286 4.07l-.499.032c.043.679.084 1.358.123 2.036l.5-.029c.078 1.365.147 2.726.205 4.077l-.5.022c.03.681.056 1.36.08 2.036l.499-.017c.048 1.376.084 2.74.105 4.085l-.5.008c.011.681.019 1.357.022 2.027l.5-.002a162.54 162.54 0 0 1-.027 4.093l-.5-.01c-.013.688-.032 1.368-.055 2.038l.5.017c-.049 1.402-.12 2.766-.215 4.082l-.498-.036c-.05.693-.107 1.373-.171 2.038l.498.048a66.678 66.678 0 0 1-.51 4.074l-.494-.078c-.11.686-.229 1.349-.359 1.987l.489.1c-.299 1.469-.657 2.815-1.079 4.015l-.472-.166a17.437 17.437 0 0 1-.778 1.878l.449.22a11.5 11.5 0 0 1-1.088 1.811 454.7 454.7 0 0 0-1.201 1.619l-.403-.297c-.398.541-.796 1.084-1.193 1.629l.404.294c-.79 1.086-1.574 2.18-2.345 3.277l-.409-.287a190.43 190.43 0 0 0-1.153 1.658l.412.283a157.345 157.345 0 0 0-2.24 3.345l-.419-.273c-.37.568-.733 1.135-1.088 1.7l.423.266a102.573 102.573 0 0 0-2.076 3.443l-.434-.249a85.88 85.88 0 0 0-.985 1.759l.44.239a62.256 62.256 0 0 0-1.806 3.576l-.454-.21c-.289.625-.56 1.243-.811 1.852l.463.191a32.75 32.75 0 0 0-1.306 3.754l-.482-.133a22.624 22.624 0 0 0-.452 1.968l.492.089c-.252 1.395-.325 2.692-.198 3.876l-.497.053c.074.69.214 1.347.424 1.968l.474-.16c.204.603.477 1.167.826 1.692a9.573 9.573 0 0 0 1.293 1.546l-.348.358c.497.483 1.05.929 1.652 1.335l.28-.414c1.079.727 2.327 1.325 3.701 1.771l-.154.476c.66.215 1.347.395 2.056.539l.1-.49c1.308.265 2.694.403 4.125.4l.001.5c.7-.001 1.409-.036 2.124-.105l-.048-.497a22.972 22.972 0 0 0 4.087-.774l.137.481a23.46 23.46 0 0 0 2.016-.672l-.179-.467a23.569 23.569 0 0 0 3.738-1.827l.258.428a24.48 24.48 0 0 0 1.771-1.177l-.294-.404a24.78 24.78 0 0 0 3.146-2.729l.358.349c.486-.499.96-1.026 1.421-1.581l-.385-.319c.437-.527.862-1.081 1.272-1.661.381-.54.757-1.067 1.128-1.584l.406.292c.384-.536.763-1.059 1.135-1.57l-.404-.295a222.343 222.343 0 0 1 2.31-3.116l.399.301c.399-.528.79-1.041 1.173-1.54l-.396-.305c.835-1.085 1.635-2.1 2.4-3.048l.389.314a129.1 129.1 0 0 1 1.228-1.501l-.385-.32a113.004 113.004 0 0 1 2.532-2.952l.373.332c.451-.507.885-.983 1.301-1.429l-.366-.341a55.062 55.062 0 0 1 2.756-2.774l.34.366a29.085 29.085 0 0 1 1.454-1.273l-.316-.388c.615-.5 1.157-.888 1.627-1.171.213-.127.497-.29.83-.481.309-.177.659-.377 1.034-.597l.252.432a58.682 58.682 0 0 0 1.842-1.121l-.268-.422a38.839 38.839 0 0 0 3.466-2.465l.314.39a28.485 28.485 0 0 0 1.627-1.41l-.342-.365c1.03-.967 1.979-2.024 2.745-3.162l.415.279c.405-.601.762-1.227 1.057-1.874l-.455-.207c.567-1.246.888-2.566.861-3.956l.5-.009a9.168 9.168 0 0 0-.296-2.13l-.484.125a10.381 10.381 0 0 0-.716-1.925l-.003-.005-.826-1.756.453-.212c-.278-.594-.551-1.179-.819-1.758l-.454.21a189.711 189.711 0 0 1-1.598-3.543l.458-.2c-.26-.595-.513-1.188-.762-1.782l-.461.192a93.412 93.412 0 0 1-1.43-3.624l.469-.174a81.264 81.264 0 0 1-.65-1.825l-.473.162a77.756 77.756 0 0 1-1.172-3.721l.48-.138a75.856 75.856 0 0 1-.513-1.87l-.484.127a86.254 86.254 0 0 1-.901-3.792l.489-.105a95.877 95.877 0 0 1-.389-1.9l-.49.096a112.084 112.084 0 0 1-.675-3.835l.493-.078c-.099-.624-.196-1.262-.29-1.916l-.495.072c-.09-.63-.179-1.274-.265-1.932-.081-.621-.166-1.268-.255-1.936l.495-.066c-.083-.63-.17-1.278-.26-1.944l-.496.067c-.168-1.243-.346-2.545-.532-3.89l.496-.07-.27-1.944-.495.069-.544-3.888.495-.07-.275-1.943-.495.07-.552-3.885.495-.07-.278-1.944-.495.071-.558-3.884.495-.071-.281-1.942-.495.072-.563-3.886.495-.072-.283-1.944-.495.072-.568-3.887.495-.073a1704.6 1704.6 0 0 0-.284-1.933l-.494.072-.572-3.885.495-.073-.288-1.948-.494.073-.211-1.427-.01-.064-.049.002c-.319.008-.786.021-1.376.04l-.017-.5c-.529.018-1.158.04-1.869.068l.019.5c-1.081.042-2.352.097-3.75.169l-.026-.5c-.602.032-1.228.065-1.873.102l.029.5c-1.194.068-2.452.147-3.743.24l-.036-.5c-.617.045-1.242.092-1.871.141l.039.499c-1.236.098-2.489.208-3.731.33l-.049-.497c-.627.062-1.251.127-1.869.195l.055.497c-1.271.141-2.516.297-3.707.468l-.071-.495a81.11 81.11 0 0 0-1.86.289l.082.493c-1.33.223-2.559.469-3.641.739l-.121-.486z"/>
    <path stroke="#F16D64" stroke-dasharray="4 2" stroke-width=".5" d="M534.028 70.834s-26.019.76-33.404 4.205M511.18 179.718c-10.027-19.587-25.909-15.309-25.91-15.02M541.608 117.314s-23.901 13.22-8.526 34.856"/>
</svg>
