<svg width="191" height="356" fill="none" xmlns="http://www.w3.org/2000/svg"><ellipse cx="95.5" cy="340.4" rx="95.5" ry="15.5" fill="#E8E7E6"/><path d="M156.912 342.209a3.321 3.321 0 0 0 2.119-3.97L99.301 108.4h-6.2L33.294 337.44a3.456 3.456 0 1 0 6.691 1.734L93.1 132.5v207.8a3.1 3.1 0 0 0 6.2 0V132.4l53.301 207.5a3.321 3.321 0 0 0 4.311 2.309z" fill="#4C4944"/><path d="M102.8 75.7H89.4v54.8h13.4V75.7z" fill="#4C4944"/><path d="M104.9 128.5c0 1.3-1.1 2.4-2.4 2.4H89.6c-1.3 0-2.4-1.1-2.4-2.4v-7.2c0-1.3 1.1-2.4 2.4-2.4h12.9c1.3 0 2.4 1.1 2.4 2.4v7.2zm2.1-55.6H85v8h22v-8z" fill="#4C4944"/><path d="M146.2 65.5c0 4.3-3.5 7.8-7.8 7.8H53.6c-4.3 0-7.8-3.5-7.8-7.8V23.9c0-4.3 3.5-7.8 7.8-7.8h84.8c4.3 0 7.8 3.5 7.8 7.8v41.6z" fill="#4C4944"/><path d="M110.7 0H80.9L70.5 17.2h51.2L110.7 0zm-3.4 12.7H84.7v-8h22.6v8z" fill="#4C4944"/><path d="M112 23.9H56v41h56v-41z" fill="#fff"/><path d="M129.7 64.5c5.468 0 9.9-4.432 9.9-9.9 0-5.467-4.432-9.9-9.9-9.9s-9.9 4.433-9.9 9.9c0 5.468 4.432 9.9 9.9 9.9z" fill="#615D56"/><path d="M129.7 62.3a7.7 7.7 0 1 0 0-15.4 7.7 7.7 0 1 0 0 15.4z" fill="#4C4944"/><path d="M129 27.9c0 .6-.4 1-1 1h-6c-.6 0-1-.4-1-1v-3c0-.6.4-1 1-1h6c.6 0 1 .4 1 1v3zm0 8c0 .6-.4 1-1 1h-6c-.6 0-1-.4-1-1v-3c0-.6.4-1 1-1h6c.6 0 1 .4 1 1v3zm11-8c0 .6-.4 1-1 1h-6c-.6 0-1-.4-1-1v-3c0-.6.4-1 1-1h6c.6 0 1 .4 1 1v3zm0 8c0 .6-.4 1-1 1h-6c-.6 0-1-.4-1-1v-3c0-.6.4-1 1-1h6c.6 0 1 .4 1 1v3z" fill="#615D56"/><path d="M87.162 54.65a.48.48 0 0 1-.336-.136l-5.468-5.335a.481.481 0 0 1-.039-.645L92.721 34.33a.48.48 0 0 1 .835.442L87.621 54.31a.48.48 0 0 1-.46.34zm-4.82-5.854l4.59 4.478 4.98-16.4-9.57 11.922z" fill="#F16D64"/><path d="M77.87 46.76a.48.48 0 0 1-.146-.024l-6.89-2.223a.48.48 0 0 1-.042-.9l22.116-9.424a.48.48 0 0 1 .48.824L78.164 46.66a.48.48 0 0 1-.292.1zm-5.518-2.766l5.426 1.75 11.988-9.172-17.414 7.422z" fill="#F16D64"/><path d="M77.8 53.606a.48.48 0 0 1-.48-.48v-6.848c0-.15.07-.29.189-.381L92.733 34.25a.481.481 0 0 1 .664.688L78.172 53.43a.483.483 0 0 1-.371.175zm.482-7.09v5.269l11.715-14.23-11.715 8.961z" fill="#F16D64"/></svg>