<svg width="302" height="56" fill="#fff" class="logo__svg" xmlns="http://www.w3.org/2000/svg"><path d="M25.312 8.192l-.896 6.72h-7.448V47H8.176V14.912H.28v-6.72h25.032zM48.115 47l-6.328-14.952h-2.408V47h-8.792V8.192h10.36c9.632 0 14.448 3.92 14.448 11.76 0 2.277-.485 4.33-1.456 6.16-.933 1.83-2.408 3.248-4.424 4.256L57.467 47h-9.352zM41.17 25.944c1.867 0 3.21-.467 4.032-1.4.821-.97 1.232-2.501 1.232-4.592 0-1.904-.448-3.304-1.344-4.2-.859-.896-2.259-1.344-4.2-1.344h-1.512v11.536h1.792zM87.248 35.8c0 2.315-.485 4.387-1.456 6.216-.97 1.792-2.426 3.23-4.368 4.312-1.94 1.045-4.33 1.568-7.168 1.568-4.256 0-7.485-1.101-9.688-3.304-2.202-2.203-3.304-5.133-3.304-8.792V8.192h8.792v27.216c0 2.016.318 3.51.952 4.48.672.97 1.755 1.456 3.248 1.456 1.494 0 2.558-.485 3.192-1.456.672-.97 1.008-2.464 1.008-4.48V8.192h8.792V35.8zM105.24 7.24c2.426 0 4.554.41 6.384 1.232 1.866.821 3.565 2.053 5.096 3.696l-3.864 4.592c-2.24-2.053-4.462-3.08-6.664-3.08-1.27 0-2.259.373-2.968 1.12-.71.747-1.064 1.736-1.064 2.968 0 1.195.41 2.184 1.232 2.968.821.747 2.408 1.624 4.76 2.632 2.165.97 3.92 1.979 5.264 3.024a9.508 9.508 0 0 1 3.024 3.752c.709 1.493 1.064 3.341 1.064 5.544 0 2.352-.542 4.461-1.624 6.328-1.046 1.867-2.558 3.323-4.536 4.368-1.979 1.045-4.294 1.568-6.944 1.568-2.763 0-5.152-.485-7.168-1.456-2.016-.97-3.827-2.315-5.432-4.032l4.2-4.648c1.344 1.195 2.613 2.11 3.808 2.744a8.871 8.871 0 0 0 3.92.896c1.53 0 2.688-.448 3.472-1.344.784-.933 1.176-2.184 1.176-3.752 0-1.419-.392-2.576-1.176-3.472-.784-.933-2.203-1.81-4.256-2.632-3.584-1.493-6.123-3.136-7.616-4.928-1.494-1.83-2.24-4.125-2.24-6.888 0-2.203.522-4.144 1.568-5.824 1.045-1.717 2.482-3.043 4.312-3.976 1.866-.933 3.957-1.4 6.272-1.4zM140.719 47V30.256h-8.12V47h-8.792V8.192h8.792v15.176h8.12V8.192h8.792V47h-8.792zm21.621 7.8V29.45h1.248v4.29c.702-1.43 1.794-2.574 3.276-3.432 1.508-.858 3.068-1.287 4.68-1.287 2.574 0 4.758.91 6.552 2.73 1.82 1.794 2.73 3.952 2.73 6.474 0 2.522-.91 4.693-2.73 6.513-1.794 1.794-3.978 2.691-6.552 2.691-1.56 0-3.081-.416-4.563-1.248-1.482-.858-2.613-2.002-3.393-3.432V54.8h-1.248zm1.17-16.536c0 2.184.793 4.082 2.379 5.694 1.612 1.586 3.51 2.379 5.694 2.379 2.21 0 4.095-.793 5.655-2.379 1.56-1.612 2.34-3.51 2.34-5.694 0-2.21-.793-4.121-2.379-5.733-1.56-1.612-3.432-2.418-5.616-2.418-2.184 0-4.082.819-5.694 2.457-1.586 1.612-2.379 3.51-2.379 5.694zM195.152 47h-1.248V17.789h1.248v15.054c1.3-2.548 3.549-3.822 6.747-3.822 2.184 0 4.017.754 5.499 2.262 1.508 1.508 2.262 3.341 2.262 5.499V47h-1.248V36.782c0-1.82-.637-3.38-1.911-4.68-1.274-1.326-2.808-1.989-4.602-1.989-1.794 0-3.367.663-4.719 1.989-1.352 1.326-2.028 2.886-2.028 4.68V47zm36.296.429c-2.496 0-4.641-.923-6.435-2.769-1.794-1.872-2.691-4.043-2.691-6.513 0-2.47.91-4.602 2.73-6.396 1.82-1.82 4.004-2.73 6.552-2.73 2.574 0 4.758.91 6.552 2.73 1.82 1.794 2.73 3.939 2.73 6.435 0 2.47-.884 4.628-2.652 6.474-1.768 1.846-3.913 2.769-6.435 2.769h-.351zm8.19-9.165c0-2.21-.793-4.121-2.379-5.733-1.56-1.612-3.432-2.418-5.616-2.418-2.184 0-4.082.819-5.694 2.457-1.586 1.612-2.379 3.51-2.379 5.694s.793 4.082 2.379 5.694c1.612 1.586 3.51 2.379 5.694 2.379 2.21 0 4.095-.793 5.655-2.379 1.56-1.612 2.34-3.51 2.34-5.694zm20.588 7.878v1.092c-1.846 0-3.419-.611-4.719-1.833-1.3-1.248-1.95-2.834-1.95-4.758V22.391h1.248v7.098h5.382v1.092h-5.382v10.062c0 1.586.52 2.899 1.56 3.939 1.066 1.04 2.353 1.56 3.861 1.56zm20.64 1.287c-2.496 0-4.641-.923-6.435-2.769-1.794-1.872-2.691-4.043-2.691-6.513 0-2.47.91-4.602 2.73-6.396 1.82-1.82 4.004-2.73 6.552-2.73 2.574 0 4.758.91 6.552 2.73 1.82 1.794 2.73 3.939 2.73 6.435 0 2.47-.884 4.628-2.652 6.474-1.768 1.846-3.913 2.769-6.435 2.769h-.351zm8.19-9.165c0-2.21-.793-4.121-2.379-5.733-1.56-1.612-3.432-2.418-5.616-2.418-2.184 0-4.082.819-5.694 2.457-1.586 1.612-2.379 3.51-2.379 5.694s.793 4.082 2.379 5.694c1.612 1.586 3.51 2.379 5.694 2.379 2.21 0 4.095-.793 5.655-2.379 1.56-1.612 2.34-3.51 2.34-5.694z"/></svg>