<svg xmlns="http://www.w3.org/2000/svg" width="174" height="32" fill="none"><path fill="#4C4944" d="M14.584 4.64l-.516 3.872H9.776V27H4.711V8.512H.16V4.64h14.423zM27.722 27l-3.646-8.615h-1.387V27h-5.066V4.64h5.969c5.55 0 8.324 2.259 8.324 6.776 0 1.312-.28 2.495-.839 3.55-.537 1.053-1.387 1.87-2.549 2.451L33.11 27h-5.388zM23.72 14.868c1.076 0 1.85-.268 2.323-.806.473-.56.71-1.441.71-2.646 0-1.097-.258-1.904-.774-2.42-.495-.516-1.302-.774-2.42-.774h-.871v6.646h1.032zm26.548 5.679c0 1.334-.28 2.527-.839 3.581-.56 1.033-1.398 1.861-2.517 2.485-1.118.602-2.495.903-4.13.903-2.452 0-4.312-.634-5.581-1.903-1.27-1.27-1.904-2.958-1.904-5.066V4.64h5.066v15.681c0 1.162.182 2.022.548 2.581.387.56 1.011.84 1.871.84.86 0 1.474-.28 1.84-.84.387-.559.58-1.42.58-2.58V4.64h5.066v15.907zM60.635 4.092c1.398 0 2.624.237 3.678.71 1.075.473 2.054 1.183 2.936 2.13l-2.226 2.645c-1.29-1.183-2.57-1.775-3.84-1.775-.731 0-1.301.215-1.71.646-.408.43-.613 1-.613 1.71 0 .688.237 1.258.71 1.71.473.43 1.387.935 2.742 1.516 1.248.56 2.26 1.14 3.033 1.742a5.478 5.478 0 0 1 1.743 2.162c.408.86.613 1.925.613 3.195 0 1.355-.312 2.57-.936 3.645-.602 1.076-1.473 1.915-2.613 2.517-1.14.602-2.474.904-4.001.904-1.592 0-2.969-.28-4.13-.84a10.498 10.498 0 0 1-3.13-2.322l2.42-2.678c.774.688 1.506 1.215 2.194 1.58a5.11 5.11 0 0 0 2.259.517c.881 0 1.548-.258 2-.775.452-.537.678-1.258.678-2.161 0-.818-.226-1.485-.678-2-.452-.539-1.27-1.044-2.452-1.517-2.065-.86-3.528-1.807-4.388-2.84-.86-1.053-1.29-2.376-1.29-3.968 0-1.27.3-2.388.903-3.356A6.083 6.083 0 0 1 57.02 4.9c1.076-.538 2.28-.807 3.614-.807zM81.077 27v-9.647h-4.679V27h-5.065V4.64h5.065v8.744h4.679V4.64h5.065V27h-5.065zm12.457 4.637V17.03h.719v2.472c.404-.824 1.033-1.483 1.887-1.977.869-.495 1.768-.742 2.697-.742 1.483 0 2.741.524 3.775 1.573 1.048 1.034 1.573 2.277 1.573 3.73 0 1.453-.525 2.704-1.573 3.753-1.034 1.033-2.292 1.55-3.775 1.55-.9 0-1.776-.24-2.63-.719-.853-.494-1.505-1.154-1.954-1.977v6.943h-.72zm.674-9.527c0 1.258.457 2.351 1.37 3.28.93.914 2.023 1.37 3.281 1.37 1.273 0 2.359-.456 3.258-1.37.899-.929 1.348-2.022 1.348-3.28 0-1.274-.456-2.375-1.37-3.304-.899-.928-1.978-1.393-3.236-1.393-1.258 0-2.352.472-3.28 1.416-.914.929-1.371 2.022-1.371 3.28zm18.231 5.033h-.719v-16.83h.719v8.673c.749-1.468 2.044-2.202 3.887-2.202 1.258 0 2.314.434 3.168 1.303.869.87 1.304 1.925 1.304 3.169v5.887h-.72v-5.887a3.716 3.716 0 0 0-1.101-2.697c-.734-.764-1.617-1.146-2.651-1.146-1.034 0-1.94.382-2.719 1.146-.779.764-1.168 1.663-1.168 2.697v5.887zm20.912.247c-1.438 0-2.674-.532-3.708-1.595-1.033-1.079-1.55-2.33-1.55-3.753s.524-2.651 1.573-3.685c1.048-1.049 2.307-1.573 3.775-1.573 1.483 0 2.741.524 3.775 1.573 1.048 1.034 1.573 2.27 1.573 3.708 0 1.423-.51 2.666-1.528 3.73-1.019 1.063-2.255 1.595-3.708 1.595h-.202zm4.719-5.28c0-1.274-.457-2.375-1.371-3.304-.899-.928-1.977-1.393-3.236-1.393-1.258 0-2.352.472-3.28 1.416-.914.929-1.371 2.022-1.371 3.28 0 1.259.457 2.352 1.371 3.281.928.914 2.022 1.37 3.28 1.37 1.274 0 2.36-.456 3.259-1.37.898-.929 1.348-2.022 1.348-3.28zm11.862 4.538v.63c-1.064 0-1.97-.352-2.719-1.056-.749-.72-1.124-1.633-1.124-2.742V12.964h.719v4.09h3.101v.629h-3.101v5.797c0 .914.3 1.67.899 2.27a3.07 3.07 0 0 0 2.225.898zm11.891.742c-1.438 0-2.674-.532-3.707-1.595-1.034-1.079-1.551-2.33-1.551-3.753s.524-2.651 1.573-3.685c1.049-1.049 2.307-1.573 3.775-1.573 1.483 0 2.741.524 3.775 1.573 1.049 1.034 1.573 2.27 1.573 3.708 0 1.423-.509 2.666-1.528 3.73-1.019 1.063-2.255 1.595-3.708 1.595h-.202zm4.719-5.28c0-1.274-.457-2.375-1.371-3.304-.899-.928-1.977-1.393-3.236-1.393-1.258 0-2.351.472-3.28 1.416-.914.929-1.371 2.022-1.371 3.28 0 1.259.457 2.352 1.371 3.281.929.914 2.022 1.37 3.28 1.37 1.274 0 2.36-.456 3.259-1.37.898-.929 1.348-2.022 1.348-3.28z"/></svg>