<svg xmlns="http://www.w3.org/2000/svg" fill="#4c4944" viewBox="0 0 90 112.5"><path d="M0 0zm71.545 48.145h-31.98V20.743a4.77 4.77 0 0 0-4.765-4.765H18.456a4.772 4.772 0 0 0-4.767 4.765v42.789a4.772 4.772 0 0 0 4.767 4.766h5.535v.959a4.77 4.77 0 0 0 4.766 4.765h42.788a4.77 4.77 0 0 0 4.766-4.765V52.914a4.773 4.773 0 0 0-4.766-4.769zm-53.09-31.21h16.344c2.1 0 3.808 1.708 3.808 3.808v27.401H37.25V22.636a.479.479 0 0 0-.479-.478H16.482a.479.479 0 0 0-.479.478v36.585c0 .264.215.478.479.478h7.507v7.644h-5.534a3.814 3.814 0 0 1-3.81-3.81v-42.79c0-2.1 1.709-3.808 3.81-3.808zm-1.495 6.181h19.331v25.031h-7.535a4.772 4.772 0 0 0-4.766 4.768v5.828h-7.03V23.116zm54.585 49.948H28.757a3.813 3.813 0 0 1-3.81-3.808V52.914a3.815 3.815 0 0 1 3.81-3.812h42.788c2.1 0 3.809 1.71 3.809 3.812v16.343a3.813 3.813 0 0 1-3.809 3.807z"/><path d="M28.919 58.424a2.662 2.662 0 0 0-2.659 2.66 2.661 2.661 0 0 0 5.321 0 2.664 2.664 0 0 0-2.662-2.66zm0 4.362a1.705 1.705 0 0 1-1.703-1.702c0-.939.764-1.704 1.703-1.704.94 0 1.705.765 1.705 1.704a1.707 1.707 0 0 1-1.705 1.702zm40.735-12.325H33.069a.48.48 0 0 0-.479.479v20.288c0 .264.215.478.479.478h36.585a.478.478 0 0 0 .477-.478V50.939a.478.478 0 0 0-.477-.478zm-.48.956V70.75H33.548V51.417h35.626zM45.201 30.296c6.651 0 12.233 5.351 12.551 11.977l-3.033-2.638a.496.496 0 0 0-.675.048.48.48 0 0 0 .045.676l3.883 3.375c.09.075.198.115.312.115a.473.473 0 0 0 .362-.166l3.371-3.877a.48.48 0 0 0-.047-.675.494.494 0 0 0-.676.048l-2.592 2.979a13.475 13.475 0 0 0-4.099-9.001 13.443 13.443 0 0 0-9.404-3.817.48.48 0 0 0 .002.956z"/></svg>