<svg xmlns="http://www.w3.org/2000/svg" width="320" height="576" fill="none" viewBox="0 0 320 576">
    <ellipse cx="160" cy="563.183" fill="#E8E7E6" rx="78.801" ry="12.817"/>
    <path fill="#F7F7F7" d="M320 0H0v388h320V0z"/>
    <path fill="#4C4944" d="M320 .238H0v8h320v-8zM210.099 564.677a2.74 2.74 0 0 0 1.747-3.274l-49.288-190.068h-5.116l-49.35 189.408a2.852 2.852 0 1 0 5.523 1.427l43.827-170.906v171.841a2.558 2.558 0 1 0 5.116 0V391.181l43.982 171.59a2.739 2.739 0 0 0 3.559 1.906z"/>
    <path fill="#4C4944" d="M165.446 344.294h-11.057v45.316h11.057v-45.316z"/>
    <path fill="#4C4944" d="M167.179 387.956c0 1.075-.908 1.985-1.981 1.985h-10.644c-1.073 0-1.98-.91-1.98-1.985v-5.954c0-1.075.907-1.985 1.98-1.985h10.644c1.073 0 1.981.91 1.981 1.985v5.954zM168.911 341.978h-18.153v6.616h18.153v-6.616z"/>
    <path fill="#4C4944" d="M201.257 335.859c0 3.556-2.888 6.45-6.436 6.45h-69.972c-3.548 0-6.436-2.894-6.436-6.45v-34.4c0-3.556 2.888-6.45 6.436-6.45h69.972c3.548 0 6.436 2.894 6.436 6.45v34.4z"/>
    <path fill="#4C4944" d="M171.965 281.695h-24.589l-8.582 14.223h42.248l-9.077-14.223zm-2.806 10.502h-18.648v-6.615h18.648v6.615z"/>
    <path fill="#fff" d="M173.037 301.459h-46.208v33.904h46.208v-33.904z"/>
    <path fill="#615D56" d="M187.643 335.032c4.511 0 8.168-3.665 8.168-8.186 0-4.522-3.657-8.187-8.168-8.187-4.512 0-8.169 3.665-8.169 8.187 0 4.521 3.657 8.186 8.169 8.186z"/>
    <path fill="#4C4944" d="M187.643 333.213c3.509 0 6.353-2.851 6.353-6.367 0-3.517-2.844-6.368-6.353-6.368s-6.354 2.851-6.354 6.368c0 3.516 2.845 6.367 6.354 6.367z"/>
    <path fill="#615D56" d="M187.065 304.767c0 .496-.331.827-.826.827h-4.95c-.496 0-.826-.331-.826-.827v-2.481c0-.496.33-.827.826-.827h4.95c.495 0 .826.331.826.827v2.481zM187.065 311.382c0 .496-.331.827-.826.827h-4.95c-.496 0-.826-.331-.826-.827v-2.481c0-.496.33-.827.826-.827h4.95c.495 0 .826.331.826.827v2.481zM196.142 304.767c0 .496-.33.827-.825.827h-4.951c-.495 0-.825-.331-.825-.827v-2.481c0-.496.33-.827.825-.827h4.951c.495 0 .825.331.825.827v2.481zM196.142 311.382c0 .496-.33.827-.825.827h-4.951c-.495 0-.825-.331-.825-.827v-2.481c0-.496.33-.827.825-.827h4.951c.495 0 .825.331.825.827v2.481z"/>
    <path fill="#F16D64" d="M154.684 328.659a.518.518 0 0 1-.349-.133l-5.686-5.205a.448.448 0 0 1-.041-.629l11.858-13.856a.52.52 0 0 1 .623-.121.457.457 0 0 1 .245.551l-6.172 19.062a.486.486 0 0 1-.478.331zm-5.012-5.711l4.773 4.369 5.18-16-9.953 11.631z"/>
    <path fill="#F16D64" d="M145.022 320.961a.53.53 0 0 1-.153-.023l-7.167-2.169a.474.474 0 0 1-.346-.425.47.47 0 0 1 .303-.453l23.001-9.194a.516.516 0 0 1 .628.195.45.45 0 0 1-.128.609l-15.834 11.363a.521.521 0 0 1-.304.097zm-5.74-2.698l5.643 1.707 12.468-8.948-18.111 7.241z"/>
    <path fill="#F16D64" d="M144.949 327.64a.553.553 0 0 1-.169-.027.472.472 0 0 1-.331-.442v-6.679a.46.46 0 0 1 .196-.373l15.834-11.362a.524.524 0 0 1 .664.047c.176.171.188.44.026.624l-15.834 18.041a.516.516 0 0 1-.386.171zm.5-6.917v5.14l12.184-13.883-12.184 8.743z"/>
</svg>
