<svg xmlns="http://www.w3.org/2000/svg" width="56" height="50" fill="none" viewBox="0 0 56 50">
    <path fill="#F16D64" d="M40.431 50c-.3 0-.595-.117-.814-.333L26.35 36.655a1.178 1.178 0 0 1-.096-1.573L53.923.442a1.16 1.16 0 0 1 1.454-.303c.494.263.735.84.571 1.38L41.547 49.171a1.169 1.169 0 0 1-.826.795 1.329 1.329 0 0 1-.29.033zM28.737 35.722l11.137 10.922L51.96 6.645 28.737 35.722z"/>
    <path fill="#F16D64" d="M17.886 30.754c-.12 0-.24-.019-.357-.056L.81 25.276A1.17 1.17 0 0 1 0 24.213a1.18 1.18 0 0 1 .707-1.133L54.376.095a1.162 1.162 0 0 1 1.465.488 1.177 1.177 0 0 1-.299 1.522L18.596 30.513c-.208.16-.458.241-.71.241zM4.496 24.01l13.164 4.269 29.092-22.37L4.495 24.01z"/>
    <path fill="#F16D64" d="M17.716 47.453a1.171 1.171 0 0 1-1.167-1.173V29.58c0-.365.17-.71.458-.93L53.954.243a1.164 1.164 0 0 1 1.549.118c.41.429.439 1.1.06 1.56L18.617 47.025a1.17 1.17 0 0 1-.9.426zm1.167-17.292v12.85l28.43-34.708-28.43 21.858z"/>
</svg>
